<?xml version="1.0" encoding="utf-8"?>
<!-- Generator: Adobe Illustrator 17.1.0, SVG Export Plug-In . SVG Version: 6.00 Build 0)  -->
<!DOCTYPE svg PUBLIC "-//W3C//DTD SVG 1.1//EN" "http://www.w3.org/Graphics/SVG/1.1/DTD/svg11.dtd">
<svg version="1.1" xmlns="http://www.w3.org/2000/svg" xmlns:xlink="http://www.w3.org/1999/xlink" x="0px" y="0px"
	 viewBox="0 54 1920 1026" style="enable-background:new 0 54 1920 1026;" xml:space="preserve">
<style type="text/css">
	.st0{display:none;}
	.st1{fill:none;}
	.st2{fill:none;stroke:#000000;stroke-width:2;stroke-miterlimit:10;}
	.st3{fill:#0F1187;}
	.st4{fill:#A7B4F3;}
	.st5{fill:#D7E0FF;}
	.st6{fill:#CDCDCD;}
	.st7{fill:#FF011F;}
	.st8{fill:#050144;}
	.st9{fill:#FFFFFF;}
</style>
<g id="Guides" class="st0">
</g>
<g id="Title">
	<g>
		<rect x="192" y="117" class="st1" width="1710.5" height="54"/>
		<path d="M214.8,161.7l-8-31.5h-0.3v31.5h-11.1V117h18.7l6.6,28.1h0.2l6.3-28.1h18.2v44.7h-12.1v-31.5h-0.3l-8,31.5H214.8z"/>
		<path d="M267.6,162.6c-10.4,0-17.3-6.8-17.3-16.7c0-9.8,7-16.7,17.3-16.7c10.3,0,17.3,6.9,17.3,16.7
			C284.9,155.8,277.9,162.6,267.6,162.6z M267.6,153.9c4,0,5.8-3.3,5.8-8c0-4.8-1.8-8-5.8-8c-4,0-5.8,3.3-5.8,8
			C261.9,150.7,263.6,153.9,267.6,153.9z"/>
		<path d="M313.3,141.3c-1.6-0.9-3.3-1.3-5.5-1.3c-4.3,0-6.9,2-6.9,7.3v14.5h-11.5v-31.7H301v5.6c1.1-3.5,4.5-6.5,8.7-6.5
			c1.9,0,3.6,0.6,4.4,1.2L313.3,141.3z"/>
		<path d="M348.6,151.3c-1.6,7.2-7.5,11.3-15.8,11.3c-10.2,0-17.4-6.1-17.4-16.2c0-10,7.4-17.2,17.3-17.2c10.6,0,16.2,7.2,16.2,15.8
			v3.2h-22.2c0.3,3.9,3.1,5.8,6.6,5.8c3.1,0,5.1-1.1,6.2-3.6L348.6,151.3z M337.8,142.7c-0.1-2.8-2-5.3-5.4-5.3
			c-3.7,0-5.3,2.3-5.8,5.3H337.8z"/>
		<path d="M387.1,130.1h11.5v31.7h-11.5V157c-1.7,3.5-5.2,5.6-9.9,5.6c-8.7,0-11.3-6-11.3-12.6v-20h11.5V147c0,4.3,1.2,6.6,4.7,6.6
			c3.6,0,5-3.1,5-8V130.1z"/>
		<path d="M416.4,161.7h-11.5v-31.7h11.5v4.8c1.7-3.5,5.5-5.6,10.2-5.6c8.7,0,11.4,6,11.4,12.6v19.9h-11.5v-16.8
			c0-4.3-1.2-6.6-4.7-6.6c-3.9,0-5.5,3.1-5.5,7.9V161.7z"/>
		<path d="M473.5,152.4c0,1.6,0.7,2.3,1.9,2.3c0.9,0,1.6-0.1,2.6-0.5v6.1c-1.6,1.1-3.9,2.1-7.2,2.1c-3.9,0-7-2-8-5.6
			c-1.8,3.7-5.5,5.6-10.5,5.6c-6.2,0-10.2-3.2-10.2-8.6c0-6.1,4.4-8.7,11.3-9.9l8.9-1.5v-0.5c0-2.6-1.2-4.2-4-4.2
			c-2.6,0-3.8,1.6-4.3,4l-10.6-0.7c1-7,6.2-11.8,15.7-11.8c8.4,0,14.6,3.6,14.6,12.4V152.4z M462.2,148l-4.7,0.9
			c-2.8,0.6-4.4,1.4-4.4,3.5c0,1.6,1.3,2.7,3.2,2.7c3.3,0,5.9-2.4,5.9-6.5V148z"/>
		<path d="M505.2,141.3c-1.6-0.9-3.3-1.3-5.5-1.3c-4.3,0-6.9,2-6.9,7.3v14.5h-11.5v-31.7h11.5v5.6c1.1-3.5,4.5-6.5,8.7-6.5
			c1.9,0,3.6,0.6,4.4,1.2L505.2,141.3z"/>
		<path d="M551.5,129.2c8.7,0,11.3,6,11.3,12.6v19.9h-11.5v-16.8c0-4.3-0.8-6.6-4.3-6.6c-3.8,0-5.1,3.1-5.1,7.9v15.5h-11.5v-16.8
			c0-4.3-0.9-6.6-4.3-6.6c-3.8,0-5.1,3.1-5.1,7.9v15.5h-11.5v-31.7h11.5v4.8c1.7-3.5,5.1-5.6,9.9-5.6c5.6,0,8.5,2.6,9.9,6.2
			C542.4,131.9,546.1,129.2,551.5,129.2z"/>
		<path d="M600.2,151.3c-1.6,7.2-7.5,11.3-15.8,11.3c-10.2,0-17.4-6.1-17.4-16.2c0-10,7.4-17.2,17.3-17.2c10.6,0,16.2,7.2,16.2,15.8
			v3.2h-22.2c0.3,3.9,3.1,5.8,6.6,5.8c3.1,0,5.1-1.1,6.2-3.6L600.2,151.3z M589.5,142.7c-0.1-2.8-2-5.3-5.4-5.3
			c-3.7,0-5.3,2.3-5.8,5.3H589.5z"/>
		<path d="M628.1,156.3c-1.5,3.7-5.1,6.2-10.4,6.2c-9.4,0-14.1-7.3-14.1-16.7c0-9.3,4.7-16.7,14.1-16.7c5.3,0,8.9,2.6,10.4,6.3V117
			h11.5v44.7h-11.5V156.3z M628.1,145.7c0-4.5-2.5-7.5-6.3-7.5c-4.5,0-6.5,3.2-6.5,7.7c0,4.6,2,7.8,6.5,7.8c3.8,0,6.3-3,6.3-7.6
			V145.7z"/>
		<path d="M670.2,173.1h-11.5v-43h11.5v5.5c1.6-3.8,5.1-6.3,10.4-6.3c9.3,0,14.1,7.4,14.1,16.7c0,9.4-4.8,16.7-14.1,16.7
			c-5.3,0-8.9-2.6-10.4-6.2V173.1z M670.2,146.1c0,4.6,2.5,7.6,6.4,7.6c4.5,0,6.5-3.2,6.5-7.8c0-4.5-2.1-7.7-6.5-7.7
			c-3.9,0-6.4,3-6.4,7.5V146.1z"/>
		<path d="M731,151.3c-1.6,7.2-7.5,11.3-15.8,11.3c-10.2,0-17.4-6.1-17.4-16.2c0-10,7.4-17.2,17.3-17.2c10.6,0,16.2,7.2,16.2,15.8
			v3.2h-22.2c0.3,3.9,3.1,5.8,6.6,5.8c3.1,0,5.1-1.1,6.2-3.6L731,151.3z M720.2,142.7c-0.1-2.8-2-5.3-5.4-5.3
			c-3.7,0-5.3,2.3-5.8,5.3H720.2z"/>
		<path d="M751.8,162.6c-10.4,0-17.3-6.8-17.3-16.7c0-9.8,7-16.7,17.3-16.7c10.3,0,17.3,6.9,17.3,16.7
			C769.1,155.8,762.1,162.6,751.8,162.6z M751.8,153.9c4,0,5.8-3.3,5.8-8c0-4.8-1.8-8-5.8-8c-4,0-5.8,3.3-5.8,8
			C746.1,150.7,747.8,153.9,751.8,153.9z"/>
		<path d="M785.2,173.1h-11.5v-43h11.5v5.5c1.6-3.8,5.1-6.3,10.4-6.3c9.3,0,14.1,7.4,14.1,16.7c0,9.4-4.8,16.7-14.1,16.7
			c-5.3,0-8.9-2.6-10.4-6.2V173.1z M785.2,146.1c0,4.6,2.5,7.6,6.4,7.6c4.5,0,6.5-3.2,6.5-7.8c0-4.5-2.1-7.7-6.5-7.7
			c-3.9,0-6.4,3-6.4,7.5V146.1z"/>
		<path d="M825.7,117v44.7h-11.5V117H825.7z"/>
		<path d="M863.5,151.3c-1.6,7.2-7.5,11.3-15.8,11.3c-10.2,0-17.4-6.1-17.4-16.2c0-10,7.4-17.2,17.3-17.2c10.6,0,16.2,7.2,16.2,15.8
			v3.2h-22.2c0.3,3.9,3.1,5.8,6.6,5.8c3.1,0,5.1-1.1,6.2-3.6L863.5,151.3z M852.8,142.7c-0.1-2.8-2-5.3-5.4-5.3
			c-3.7,0-5.3,2.3-5.8,5.3H852.8z"/>
		<path d="M896.8,162.6c-10.4,0-17.3-6.8-17.3-16.7c0-9.8,7-16.7,17.3-16.7c10.3,0,17.3,6.9,17.3,16.7
			C914.1,155.8,907.1,162.6,896.8,162.6z M896.8,153.9c4,0,5.8-3.3,5.8-8c0-4.8-1.8-8-5.8-8c-4,0-5.8,3.3-5.8,8
			C891.1,150.7,892.8,153.9,896.8,153.9z"/>
		<path d="M915.4,138v-8h4.5v-1.3c0-8.2,5.1-12.6,12.7-12.6c6,0,10.1,3,11.4,8.2l-7,2.2c-0.7-1.4-1.6-2.2-3.1-2.2
			c-1.9,0-2.6,1.6-2.6,3.6v2.1h8v8h-8v23.7H920V138H915.4z"/>
		<path d="M970.3,129.2c9.5,0,14.8,6.2,15.6,13.8l-9.4,0.6c-0.8-3.9-2.7-5.8-6-5.8c-3.5,0-5.9,2.3-5.9,8c0,5.7,2.4,8,5.9,8
			c3.3,0,5.3-1.9,6-5.8l9.4,0.7c-0.8,7.7-6.1,13.8-15.6,13.8c-10,0-17.3-6.6-17.3-16.7C953,135.9,960.3,129.2,970.3,129.2z"/>
		<path d="M1006.3,162.6c-10.4,0-17.3-6.8-17.3-16.7c0-9.8,7-16.7,17.3-16.7c10.3,0,17.3,6.9,17.3,16.7
			C1023.6,155.8,1016.6,162.6,1006.3,162.6z M1006.3,153.9c4,0,5.8-3.3,5.8-8c0-4.8-1.8-8-5.8-8c-4,0-5.8,3.3-5.8,8
			C1000.5,150.7,1002.2,153.9,1006.3,153.9z"/>
		<path d="M1039.7,117v44.7h-11.5V117H1039.7z"/>
		<path d="M1061.5,162.6c-10.4,0-17.3-6.8-17.3-16.7c0-9.8,7-16.7,17.3-16.7c10.3,0,17.3,6.9,17.3,16.7
			C1078.8,155.8,1071.8,162.6,1061.5,162.6z M1061.5,153.9c4,0,5.8-3.3,5.8-8c0-4.8-1.8-8-5.8-8c-4,0-5.8,3.3-5.8,8
			C1055.8,150.7,1057.5,153.9,1061.5,153.9z"/>
		<path d="M1107.2,141.3c-1.6-0.9-3.3-1.3-5.5-1.3c-4.3,0-6.9,2-6.9,7.3v14.5h-11.5v-31.7h11.5v5.6c1.1-3.5,4.5-6.5,8.7-6.5
			c1.9,0,3.6,0.6,4.4,1.2L1107.2,141.3z"/>
		<path d="M1138.8,150.9c-2.6,0-4.8-0.3-6.9-0.9c-0.4,0.4-0.6,0.9-0.6,1.5c0,1.1,0.8,1.9,2.7,1.9h13.1c7.2,0,10.8,3.8,10.8,9.1
			c0,7.9-9.6,11.5-19.9,11.5c-9,0-16.8-1.8-16.8-7.7c0-2.8,2.5-5,6-5.3c-2.8-0.9-4.5-3.5-4.5-6.2c0-3.1,2-5.4,5.4-6.7
			c-2.8-1.8-4.5-4.5-4.5-8c0-6.7,6.4-10.9,15.3-10.9c3.8,0,7.5,0.9,10.2,2.6c1.9-2.6,5.4-4.9,8.9-4.9v8.7c-1.3,0-3.1,0.1-4.6,0.5
			c0.6,1.2,1,2.6,1,4C1154.2,146.7,1147.7,150.9,1138.8,150.9z M1138.1,168c5.3,0,9.2-1.1,9.2-3c0-1.3-1-1.8-2.9-1.8h-11.6
			c-1.3,0-2.1,0.7-2.1,1.9C1130.6,167.3,1133.8,168,1138.1,168z M1138.9,135.5c-1.9,0-3.3,1.8-3.3,4.5c0,2.8,1.4,4.6,3.3,4.6
			s3.3-1.8,3.3-4.6C1142.2,137.3,1140.8,135.5,1138.9,135.5z"/>
		<path d="M1191.8,151.3c-1.6,7.2-7.5,11.3-15.8,11.3c-10.2,0-17.4-6.1-17.4-16.2c0-10,7.4-17.2,17.3-17.2
			c10.6,0,16.2,7.2,16.2,15.8v3.2h-22.2c0.3,3.9,3.1,5.8,6.6,5.8c3.1,0,5.1-1.1,6.2-3.6L1191.8,151.3z M1181.1,142.7
			c-0.1-2.8-2-5.3-5.4-5.3c-3.7,0-5.3,2.3-5.8,5.3H1181.1z"/>
		<path d="M1197.8,138h-4.3v-7.1l2.3-0.4c3.2-0.5,4.2-2.2,5-5.1l1.1-4.1h7.2v8.7h8.2v8h-8.2v11.6c0,2.7,1.3,3.8,3.6,3.8
			c1.4,0,3-0.3,4.9-1.1v7.5c-2.4,1.8-5.2,2.8-9.5,2.8c-5.3,0-10.4-2.2-10.4-9.7V138z"/>
		<path d="M1242.6,151.3c0.4,2.6,2.6,4.1,6,4.1c2.6,0,3.9-0.9,3.9-2.2c0-1.2-0.7-2.1-2.9-2.4l-4.7-0.7c-7.7-1.2-11.7-3.7-11.7-10.2
			c0-6.2,5.5-10.7,14.3-10.7c9.2,0,14.6,4,15.2,10.6l-9.4,0.3c-0.4-2.3-2.4-3.7-6-3.7c-2.2,0-3.5,0.9-3.5,2.3c0,1.1,0.9,1.6,1.9,1.8
			l6.2,1.1c7.1,1.1,11.2,4.3,11.2,10.5c0,6.7-5.7,10.5-14.7,10.5c-8.7,0-15.3-3.5-15.9-11.1L1242.6,151.3z"/>
		<path d="M1279.1,161.7h-11.5V117h11.5v17.8c1.7-3.5,5.5-5.6,10.2-5.6c8.7,0,11.4,6,11.4,12.6v19.9h-11.5v-16.8
			c0-4.3-1.2-6.6-4.7-6.6c-3.9,0-5.5,3.1-5.5,7.9V161.7z"/>
		<path d="M1322.3,162.6c-10.4,0-17.3-6.8-17.3-16.7c0-9.8,7-16.7,17.3-16.7c10.3,0,17.3,6.9,17.3,16.7
			C1339.6,155.8,1332.6,162.6,1322.3,162.6z M1322.3,153.9c4,0,5.8-3.3,5.8-8c0-4.8-1.8-8-5.8-8c-4,0-5.8,3.3-5.8,8
			C1316.6,150.7,1318.3,153.9,1322.3,153.9z"/>
		<path d="M1345.3,138h-4.3v-7.1l2.3-0.4c3.2-0.5,4.2-2.2,5-5.1l1.1-4.1h7.2v8.7h8.2v8h-8.2v11.6c0,2.7,1.3,3.8,3.6,3.8
			c1.4,0,3-0.3,4.9-1.1v7.5c-2.4,1.8-5.2,2.8-9.5,2.8c-5.3,0-10.4-2.2-10.4-9.7V138z"/>
		<path d="M1392.7,161.7h-8.9V117h11.5v18.5c1.6-3.8,5.1-6.3,10.4-6.3c9.3,0,14.1,7.4,14.1,16.7c0,9.4-4.8,16.7-14.3,16.7
			c-5.1,0-9.1-2.5-10.9-6.3L1392.7,161.7z M1395.3,146.1c0,4.6,2.5,7.6,6.4,7.6c4.5,0,6.5-3.2,6.5-7.8c0-4.5-2.1-7.7-6.5-7.7
			c-3.9,0-6.4,3-6.4,7.5V146.1z"/>
		<path d="M1428.7,173.1l4.5-10.9l-12.9-32.1h12.1l7,18.5h0.3l7.2-18.5h11.3l-18.2,43H1428.7z"/>
		<path d="M1489.6,129.2c9.5,0,14.8,6.2,15.6,13.8l-9.4,0.6c-0.8-3.9-2.7-5.8-6-5.8c-3.5,0-5.9,2.3-5.9,8c0,5.7,2.4,8,5.9,8
			c3.3,0,5.3-1.9,6-5.8l9.4,0.7c-0.8,7.7-6.1,13.8-15.6,13.8c-10,0-17.3-6.6-17.3-16.7C1472.3,135.9,1479.6,129.2,1489.6,129.2z"/>
		<path d="M1525.6,162.6c-10.4,0-17.3-6.8-17.3-16.7c0-9.8,7-16.7,17.3-16.7c10.3,0,17.3,6.9,17.3,16.7
			C1542.9,155.8,1535.9,162.6,1525.6,162.6z M1525.6,153.9c4,0,5.8-3.3,5.8-8c0-4.8-1.8-8-5.8-8c-4,0-5.8,3.3-5.8,8
			C1519.8,150.7,1521.5,153.9,1525.6,153.9z"/>
		<path d="M1558.9,173.1h-11.5v-43h11.5v5.5c1.6-3.8,5.1-6.3,10.4-6.3c9.3,0,14.1,7.4,14.1,16.7c0,9.4-4.8,16.7-14.1,16.7
			c-5.3,0-8.9-2.6-10.4-6.2V173.1z M1558.9,146.1c0,4.6,2.5,7.6,6.4,7.6c4.5,0,6.5-3.2,6.5-7.8c0-4.5-2.1-7.7-6.5-7.7
			c-3.9,0-6.4,3-6.4,7.5V146.1z"/>
		<path d="M1595.7,151.3c0.4,2.6,2.6,4.1,6,4.1c2.6,0,3.9-0.9,3.9-2.2c0-1.2-0.7-2.1-2.9-2.4l-4.7-0.7c-7.7-1.2-11.7-3.7-11.7-10.2
			c0-6.2,5.5-10.7,14.3-10.7c9.2,0,14.6,4,15.2,10.6l-9.4,0.3c-0.4-2.3-2.4-3.7-6-3.7c-2.2,0-3.5,0.9-3.5,2.3c0,1.1,0.9,1.6,1.9,1.8
			l6.2,1.1c7.1,1.1,11.2,4.3,11.2,10.5c0,6.7-5.7,10.5-14.7,10.5c-8.7,0-15.3-3.5-15.9-11.1L1595.7,151.3z"/>
	</g>
	<g>
		<rect x="192" y="161.3" class="st1" width="1503.6" height="108"/>
		<path d="M195.8,208.1c1.4,3.3,4.4,5,7.5,5c3.1,0,5.4-1.3,5.4-3.9c0-2.1-1.4-2.9-3.8-3.5l-4.5-1.1c-3-0.7-5.4-2.4-5.4-5.9
			c0-3.9,3.1-6.6,7.6-6.6c4.1,0,6.9,1.9,8.4,4.5l-2,2.2c-1-2.4-3.3-4.1-6.3-4.1c-2.8,0-4.6,1.4-4.6,3.8c0,2.1,1.5,2.8,3.9,3.4l4,0.9
			c3.3,0.8,5.9,2.3,5.9,6.2c0,4.1-3.6,6.6-8.3,6.6c-4.1,0-7.9-1.9-9.4-5.2L195.8,208.1z"/>
		<path d="M216.7,215.2v-22.7h3.2v9.6h10.6v-9.6h3.2v22.7h-3.2v-10.4h-10.6v10.4H216.7z"/>
		<path d="M251.3,208.6H243l-2.1,6.6h-3.1l7.6-22.7h3.8l7.6,22.7h-3.3L251.3,208.6z M243.8,206.1h6.7l-3.3-10.1h-0.1L243.8,206.1z"
			/>
		<path d="M275.5,215.2c-0.9-0.4-1.3-2.3-1.5-4.6c-0.3-3.5-1.4-5.4-4.6-5.4h-5.4v9.9H261v-22.7h8.6c5.7,0,8.4,2.5,8.4,6.3
			c0,2.8-2.6,5-5.5,5.2c2.6,0.4,4,2.5,4.4,5.2c0.6,3.8,1.3,5,2.5,5.8v0.3H275.5z M264.1,202.8h5c3.9,0,5.7-1.2,5.7-3.8
			c0-2.4-1.6-3.8-5.4-3.8h-5.3V202.8z"/>
		<path d="M299.5,215.2h-15v-22.7h14.7v2.7h-11.6v6.9h8.2v2.7h-8.2v7.7h11.9V215.2z"/>
		<path d="M335.7,215.7c-5.5,0-9.4-4.8-9.4-11.8c0-7,4-11.8,9.4-11.8c5.5,0,9.4,4.8,9.4,11.8C345.1,210.9,341.1,215.7,335.7,215.7z
			 M335.7,194.9c-3.7,0-6.2,3.5-6.2,9c0,5.5,2.4,9,6.2,9c3.7,0,6.2-3.5,6.2-9C341.9,198.4,339.4,194.9,335.7,194.9z"/>
		<path d="M350.8,215.2v-22.7H366v2.7H354v7.1h9.1v2.7H354v10.3H350.8z"/>
		<path d="M394.7,208.1c1.4,3.3,4.4,5,7.5,5c3.1,0,5.4-1.3,5.4-3.9c0-2.1-1.4-2.9-3.8-3.5l-4.5-1.1c-3-0.7-5.4-2.4-5.4-5.9
			c0-3.9,3.1-6.6,7.6-6.6c4.1,0,6.9,1.9,8.4,4.5l-2,2.2c-1-2.4-3.3-4.1-6.3-4.1c-2.8,0-4.6,1.4-4.6,3.8c0,2.1,1.5,2.8,3.9,3.4l4,0.9
			c3.3,0.8,5.9,2.3,5.9,6.2c0,4.1-3.6,6.6-8.3,6.6c-4.1,0-7.9-1.9-9.4-5.2L394.7,208.1z"/>
		<path d="M415.6,206.1v-13.6h3.1v13.4c0,4.6,1.8,7,5.4,7c3.5,0,5.4-2.4,5.4-7v-13.4h3.1v13.6c0,6.6-3.9,9.5-8.5,9.5
			C419.5,215.7,415.6,212.8,415.6,206.1z"/>
		<path d="M454.8,209c0,3.9-2.8,6.2-8.1,6.2h-8.4v-22.7h8c5.6,0,7.9,2.4,7.9,6c0,2.6-2.2,4.5-4.9,4.9
			C452.2,203.9,454.8,205.8,454.8,209z M441.3,202.4h5.1c3.2,0,4.6-1.4,4.6-3.6c0-2.2-1.4-3.6-4.6-3.6h-5.1V202.4z M441.3,204.8v7.8
			h5.3c3.4,0,5.1-1.4,5.1-3.9c0-2.5-1.8-4-5.1-4H441.3z"/>
		<path d="M475.7,192.6v14.8c0,5.3-3.2,8.3-7.9,8.3c-5.2,0-8.4-3.7-8-9.1l3.3-0.8c-0.5,4.3,1.1,7.2,4.7,7.2c3.3,0,4.7-2.1,4.7-5.6
			v-14.8H475.7z"/>
		<path d="M498.5,215.2h-15v-22.7h14.7v2.7h-11.6v6.9h8.2v2.7h-8.2v7.7h11.9V215.2z"/>
		<path d="M521.6,208.8c-1.1,4.2-4,6.9-8.6,6.9c-5.4,0-9.6-4.8-9.6-11.8c0-7,4.2-11.8,9.7-11.8c4.1,0,6.9,2.3,8.2,6l-2.8,1.7
			c-0.8-3-2.6-5-5.4-5c-3.5,0-6.4,3.5-6.4,9.1c0,5.6,2.9,9.1,6.3,9.1c3.2,0,5-2.1,5.7-5.7L521.6,208.8z"/>
		<path d="M533,215.2v-19.9h-8v-2.7h19.3v2.7h-8.1v19.9H533z"/>
		<path d="M549.4,208.1c1.4,3.3,4.4,5,7.5,5c3.1,0,5.4-1.3,5.4-3.9c0-2.1-1.4-2.9-3.8-3.5l-4.5-1.1c-3-0.7-5.4-2.4-5.4-5.9
			c0-3.9,3.1-6.6,7.6-6.6c4.1,0,6.9,1.9,8.4,4.5l-2,2.2c-1-2.4-3.3-4.1-6.3-4.1c-2.8,0-4.6,1.4-4.6,3.8c0,2.1,1.5,2.8,3.9,3.4l4,0.9
			c3.3,0.8,5.9,2.3,5.9,6.2c0,4.1-3.6,6.6-8.3,6.6c-4.1,0-7.9-1.9-9.4-5.2L549.4,208.1z"/>
		<path d="M609.5,209c0,3.9-2.8,6.2-8.1,6.2H593v-22.7h8c5.6,0,7.9,2.4,7.9,6c0,2.6-2.2,4.5-4.9,4.9
			C607,203.9,609.5,205.8,609.5,209z M596,202.4h5.1c3.2,0,4.6-1.4,4.6-3.6c0-2.2-1.4-3.6-4.6-3.6H596V202.4z M596,204.8v7.8h5.3
			c3.4,0,5.1-1.4,5.1-3.9c0-2.5-1.8-4-5.1-4H596z"/>
		<path d="M629.5,192.6h3.3l-8.4,13.2v9.5h-3v-9.5l-8.4-13.2h3.6l6.4,10.3L629.5,192.6z"/>
		<path d="M673.4,215.2c-0.9-0.4-1.3-2.3-1.5-4.6c-0.3-3.5-1.4-5.4-4.6-5.4h-5.4v9.9h-3.1v-22.7h8.6c5.7,0,8.4,2.5,8.4,6.3
			c0,2.8-2.6,5-5.5,5.2c2.6,0.4,4,2.5,4.4,5.2c0.6,3.8,1.3,5,2.5,5.8v0.3H673.4z M661.9,202.8h5c3.9,0,5.7-1.2,5.7-3.8
			c0-2.4-1.6-3.8-5.4-3.8h-5.3V202.8z"/>
		<path d="M693.4,208.6h-8.3l-2.1,6.6h-3.1l7.6-22.7h3.8l7.6,22.7h-3.3L693.4,208.6z M685.9,206.1h6.7l-3.3-10.1h-0.1L685.9,206.1z"
			/>
		<path d="M720.5,208.8c-1.1,4.2-4,6.9-8.6,6.9c-5.4,0-9.6-4.8-9.6-11.8c0-7,4.2-11.8,9.7-11.8c4.1,0,6.9,2.3,8.2,6l-2.8,1.7
			c-0.8-3-2.6-5-5.4-5c-3.5,0-6.4,3.5-6.4,9.1c0,5.6,2.9,9.1,6.3,9.1c3.2,0,5-2.1,5.7-5.7L720.5,208.8z"/>
		<path d="M741.6,215.2h-15v-22.7h14.7v2.7h-11.6v6.9h8.2v2.7h-8.2v7.7h11.9V215.2z"/>
		<path d="M781.8,208.6h-8.3l-2.1,6.6h-3.1l7.6-22.7h3.8l7.6,22.7h-3.3L781.8,208.6z M774.3,206.1h6.7l-3.3-10.1h-0.1L774.3,206.1z"
			/>
		<path d="M805.4,210.1v-17.6h2.9v22.7h-2.8l-11.2-18.7v18.7h-2.9v-22.7h3.7L805.4,210.1z"/>
		<path d="M813.7,192.6h6c7,0,11.4,4.2,11.4,11.3c0,7.1-4.5,11.3-11.4,11.3h-6V192.6z M819.3,212.7c5.5,0,8.5-3.2,8.5-8.7
			s-3-8.7-8.5-8.7h-2.4v17.5H819.3z"/>
		<path d="M870.2,208.6h-8.3l-2.1,6.6h-3.1l7.6-22.7h3.8l7.6,22.7h-3.3L870.2,208.6z M862.7,206.1h6.7l-3.3-10.1H866L862.7,206.1z"
			/>
		<path d="M894.4,215.2c-0.9-0.4-1.3-2.3-1.5-4.6c-0.3-3.5-1.4-5.4-4.6-5.4H883v9.9h-3.1v-22.7h8.6c5.7,0,8.4,2.5,8.4,6.3
			c0,2.8-2.6,5-5.5,5.2c2.6,0.4,4,2.5,4.4,5.2c0.6,3.8,1.3,5,2.5,5.8v0.3H894.4z M883,202.8h5c3.9,0,5.7-1.2,5.7-3.8
			c0-2.4-1.6-3.8-5.4-3.8H883V202.8z"/>
		<path d="M909.6,208.6l-4.6-13.3h-0.2v20h-2.9v-22.7h4.6l3.9,11.7h0.2l3.6-11.7h4.6v22.7h-3v-20h-0.2l-4.4,13.3H909.6z"/>
		<path d="M940.5,215.2h-15v-22.7h14.7v2.7h-11.6v6.9h8.2v2.7h-8.2v7.7h11.9V215.2z"/>
		<path d="M946.3,192.6h6c7,0,11.4,4.2,11.4,11.3c0,7.1-4.5,11.3-11.4,11.3h-6V192.6z M952,212.7c5.5,0,8.5-3.2,8.5-8.7
			s-3-8.7-8.5-8.7h-2.4v17.5H952z"/>
		<path d="M991.5,208.1c1.4,3.3,4.4,5,7.5,5c3.1,0,5.4-1.3,5.4-3.9c0-2.1-1.4-2.9-3.8-3.5l-4.5-1.1c-3-0.7-5.4-2.4-5.4-5.9
			c0-3.9,3.1-6.6,7.6-6.6c4.1,0,6.9,1.9,8.4,4.5l-2,2.2c-1-2.4-3.3-4.1-6.3-4.1c-2.8,0-4.6,1.4-4.6,3.8c0,2.1,1.5,2.8,3.9,3.4l4,0.9
			c3.3,0.8,5.9,2.3,5.9,6.2c0,4.1-3.6,6.6-8.3,6.6c-4.1,0-7.9-1.9-9.4-5.2L991.5,208.1z"/>
		<path d="M1019.3,215.2v-19.9h-8v-2.7h19.3v2.7h-8.1v19.9H1019.3z"/>
		<path d="M1047,208.6h-8.3l-2.1,6.6h-3.1l7.6-22.7h3.8l7.6,22.7h-3.3L1047,208.6z M1039.6,206.1h6.7L1043,196h-0.1L1039.6,206.1z"
			/>
		<path d="M1063.5,215.2v-19.9h-8v-2.7h19.3v2.7h-8.1v19.9H1063.5z"/>
		<path d="M1078.7,206.1v-13.6h3.1v13.4c0,4.6,1.8,7,5.4,7c3.5,0,5.4-2.4,5.4-7v-13.4h3.1v13.6c0,6.6-3.9,9.5-8.5,9.5
			C1082.6,215.7,1078.7,212.8,1078.7,206.1z"/>
		<path d="M1102,208.1c1.4,3.3,4.4,5,7.5,5c3.1,0,5.4-1.3,5.4-3.9c0-2.1-1.4-2.9-3.8-3.5l-4.5-1.1c-3-0.7-5.4-2.4-5.4-5.9
			c0-3.9,3.1-6.6,7.6-6.6c4.1,0,6.9,1.9,8.4,4.5l-2,2.2c-1-2.4-3.3-4.1-6.3-4.1c-2.8,0-4.6,1.4-4.6,3.8c0,2.1,1.5,2.8,3.9,3.4l4,0.9
			c3.3,0.8,5.9,2.3,5.9,6.2c0,4.1-3.6,6.6-8.3,6.6c-4.1,0-7.9-1.9-9.4-5.2L1102,208.1z"/>
		<path d="M1129.1,210.8h4.6v5.1c0,3.2-2.3,4.9-5.9,4.9v-2.2c2,0,3.5-0.5,3.5-2.7v-0.8h-2.2V210.8z"/>
		<path d="M1183.8,212.6v2.7h-16.7v-1.8l6.4-5.5c3.6-3.1,6.3-5.4,6.3-8.7c0-2.7-1.6-4.5-4.6-4.5c-3.1,0-4.8,1.9-4.8,5.2
			c0,0.7,0.1,1.4,0.4,2.1l-3.1-0.1c-0.2-0.7-0.3-1.4-0.3-2.1c0-4.6,3.1-7.6,8-7.6c5.3,0,7.8,3.1,7.8,6.9c0,4.1-3.7,7.3-6.8,9.9
			l-4.2,3.5H1183.8z"/>
		<path d="M1197.7,215.7c-5.5,0-9.1-4.2-9.1-11.8c0-7.5,3.6-11.8,9.1-11.8c5.5,0,9.1,4.2,9.1,11.8
			C1206.9,211.4,1203.2,215.7,1197.7,215.7z M1197.7,194.7c-3.7,0-5.9,3.1-5.9,9.3c0,6.2,2.2,9.3,5.9,9.3c3.7,0,5.9-3.1,5.9-9.3
			C1203.6,197.8,1201.5,194.7,1197.7,194.7z"/>
		<path d="M1211.9,215.2v-2.6h7.2v-14.5h-6.3v-2.3h1.9c3.8,0,4.9-0.7,5.5-3.4h2v20.2h6.7v2.6H1211.9z"/>
		<path d="M1241.9,215.7c-5.5,0-9.1-4.2-9.1-11.8c0-7.5,3.6-11.8,9.1-11.8c5.5,0,9.1,4.2,9.1,11.8
			C1251.1,211.4,1247.4,215.7,1241.9,215.7z M1241.9,194.7c-3.7,0-5.9,3.1-5.9,9.3c0,6.2,2.2,9.3,5.9,9.3c3.7,0,5.9-3.1,5.9-9.3
			C1247.8,197.8,1245.7,194.7,1241.9,194.7z"/>
		<path d="M1259.6,202.7h8.9v2.8h-8.9V202.7z"/>
		<path d="M1278.2,215.2v-2.6h7.2v-14.5h-6.3v-2.3h1.9c3.8,0,4.9-0.7,5.5-3.4h2v20.2h6.7v2.6H1278.2z"/>
		<path d="M1314.1,198.5c-0.5-2.4-2.1-3.9-4.9-3.9c-4.7,0-6.8,4.8-6.7,10.6c0.7-2.7,3-4.8,6.7-4.8c4.5,0,7.7,3.1,7.7,7.5
			c0,4.6-3.3,7.7-8.2,7.7c-5.8,0-9-4.4-9-11.3c0-7.1,3.3-12.2,9.5-12.2c4,0,6.8,2.1,7.6,5.5L1314.1,198.5z M1308.8,213.2
			c3.1,0,5.2-2.1,5.2-5.1c0-3.1-2.1-5.1-5.3-5.1s-5.3,2-5.3,5.1C1303.4,211.1,1305.6,213.2,1308.8,213.2z"/>
	</g>
</g>
<g id="Source">
	<g>
		<rect x="192" y="1008" class="st1" width="1504.4" height="108"/>
		<path d="M194.8,1019.2c0.1,3.2,2.4,4.9,5.3,4.9c2.6,0,4.3-1.1,4.3-3.1c0-1.6-1.1-2.4-3.4-2.9l-3.5-0.7c-2.6-0.5-4.4-1.9-4.4-4.6
			c0-3.1,2.4-5.2,6.3-5.2c4.4,0,7,2.4,7,6.3l-2.2,0.1c-0.1-2.9-1.8-4.6-4.8-4.6c-2.5,0-4,1.2-4,3.2c0,1.7,1.1,2.3,3.2,2.7l3.2,0.6
			c3.2,0.6,4.8,2,4.8,4.8c0,3.2-2.8,5.1-6.6,5.1c-4.3,0-7.5-2.4-7.5-6.6L194.8,1019.2z"/>
		<path d="M214.8,1026c-3.6,0-6.2-2.6-6.2-6.4c0-3.8,2.6-6.5,6.2-6.5c3.6,0,6.3,2.7,6.3,6.5C221.1,1023.3,218.5,1026,214.8,1026z
			 M214.8,1024.2c2.5,0,3.9-1.9,3.9-4.6c0-2.7-1.4-4.6-3.9-4.6c-2.5,0-3.8,1.9-3.8,4.6C211,1022.2,212.4,1024.2,214.8,1024.2z"/>
		<path d="M231.8,1013.4h2.3v12.2h-2.3v-2.2c-0.6,1.5-2.2,2.5-4,2.5c-3.2,0-4.4-2.1-4.4-5v-7.6h2.3v7.4c0,2,0.9,3.4,2.8,3.4
			c1.8,0,3.2-1.5,3.2-3.7V1013.4z"/>
		<path d="M244.6,1015.7c-0.7-0.4-1.1-0.5-1.9-0.5c-1.8,0-3.1,1.6-3.1,3.9v6.5h-2.3v-12.2h2.3v2.5c0.4-1.4,1.7-2.8,3.5-2.8
			c0.8,0,1.3,0.2,1.7,0.6L244.6,1015.7z"/>
		<path d="M251.7,1013.1c3.6,0,5.5,2.4,5.8,5.3l-2,0.1c-0.2-2.2-1.5-3.6-3.8-3.6c-2.3,0-3.9,1.8-3.9,4.6c0,2.8,1.6,4.6,3.9,4.6
			c2.3,0,3.6-1.5,3.8-3.7l2,0.2c-0.3,3-2.2,5.3-5.8,5.3c-3.7,0-6.3-2.5-6.3-6.4C245.4,1015.6,248,1013.1,251.7,1013.1z"/>
		<path d="M271.1,1021.5c-0.6,2.8-2.7,4.5-5.7,4.5c-3.6,0-6.3-2.5-6.3-6.3c0-3.9,2.7-6.6,6.2-6.6c3.9,0,5.9,2.8,5.9,6.1v0.9h-9.7
			c0.1,2.4,1.8,4.1,4,4.1c2,0,3.2-1,3.8-2.9L271.1,1021.5z M268.8,1018.6c-0.1-2-1.2-3.8-3.5-3.8c-2.2,0-3.5,1.7-3.8,3.8H268.8z"/>
		<path d="M273.1,1014h2.8v2.8h-2.8V1014z M273.1,1022.8h2.8v2.8h-2.8V1022.8z"/>
		<path d="M289.4,1025.6l-7.1-17.6h2.5l6,14.8h0.1l5.8-14.8h2.5l-7.1,17.6H289.4z"/>
		<path d="M303.6,1008v17.6h-2.4V1008H303.6z"/>
		<path d="M314.9,1007.7c5,0,7.9,3.1,8.2,7.6l-2.4,0.1c-0.2-3.2-2.2-5.7-5.9-5.7c-3.6,0-6.2,2.7-6.2,7.1s2.6,7.1,6.2,7.1
			c3.6,0,5.7-2.4,5.9-5.7l2.4,0.1c-0.3,4.5-3.2,7.6-8.2,7.6c-4.9,0-8.7-3.7-8.7-9.2C306.2,1011.4,310,1007.7,314.9,1007.7z"/>
		<path d="M338.2,1025.6h-12.6V1008H338v2h-10v5.5h7.9v2H328v6.1h10.2V1025.6z"/>
		<path d="M358.2,1021.5V1008h2.3v17.6h-1.9l-10.2-14.2v14.2h-2.3V1008h2.5L358.2,1021.5z"/>
		<path d="M375,1021.5c-0.6,2.8-2.7,4.5-5.7,4.5c-3.6,0-6.3-2.5-6.3-6.3c0-3.9,2.7-6.6,6.2-6.6c3.9,0,5.9,2.8,5.9,6.1v0.9h-9.7
			c0.1,2.4,1.8,4.1,4,4.1c2,0,3.2-1,3.8-2.9L375,1021.5z M372.7,1018.6c-0.1-2-1.2-3.8-3.5-3.8c-2.2,0-3.5,1.7-3.8,3.8H372.7z"/>
		<path d="M388.6,1022.7h0.1l2.8-9.3h2.2l-3.9,12.2h-2.2l-2.6-9.1h-0.1l-2.6,9.1H380l-3.9-12.2h2.3l2.9,9.3h0.1l2.6-9.3h2
			L388.6,1022.7z"/>
		<path d="M396.5,1021.4c0.2,1.9,1.5,2.9,3.6,2.9c1.6,0,2.8-0.6,2.8-1.8c0-1.1-0.8-1.5-2.3-1.8l-2.1-0.4c-2.3-0.4-3.7-1.3-3.7-3.4
			c0-2.2,1.9-3.8,4.7-3.8c3.2,0,5.2,1.5,5.4,4.3l-1.9,0.1c-0.3-1.9-1.4-2.7-3.5-2.7c-1.5,0-2.5,0.7-2.5,1.8c0,1,0.6,1.5,1.9,1.7
			l2.3,0.4c2.5,0.4,3.9,1.3,3.9,3.6c0,2.4-2.2,3.8-5,3.8c-3.1,0-5.4-1.4-5.6-4.5L396.5,1021.4z"/>
		<path d="M407,1014h2.8v2.8H407V1014z M407,1022.8h2.8v2.7c0,2-0.6,3.1-2.8,3.1v-1.4c1-0.1,1.3-0.5,1.3-1.7H407V1022.8z"/>
		<path d="M423,1026c-3.6,0-6.2-2.6-6.2-6.4c0-3.8,2.6-6.5,6.2-6.5c3.6,0,6.3,2.7,6.3,6.5C429.2,1023.3,426.6,1026,423,1026z
			 M423,1024.2c2.5,0,3.9-1.9,3.9-4.6c0-2.7-1.4-4.6-3.9-4.6c-2.5,0-3.8,1.9-3.8,4.6C419.1,1022.2,420.5,1024.2,423,1024.2z"/>
		<path d="M430.3,1015.1v-1.7h1.9v-1.4c0-2.6,1.5-4.3,4.1-4.3c2.1,0,3.3,1,3.8,2.8l-1.6,0.6c-0.3-1-1-1.7-2.1-1.7
			c-1.3,0-1.9,0.9-1.9,2.4v1.7h3.4v1.7h-3.4v10.6h-2.3v-10.6H430.3z"/>
		<path d="M443.4,1010.6c2.5,0,3.5-0.8,4.1-2.7h1.6v17.8h-2.4v-13.5h-3.3V1010.6z"/>
		<path d="M452.2,1022.8h2.8v2.7c0,2-0.6,3.1-2.8,3.1v-1.4c1-0.1,1.3-0.5,1.3-1.7h-1.3V1022.8z"/>
		<path d="M456.8,1021c0-2.3,1.7-3.9,3.6-4.2c-1.8-0.7-3-2.1-3-4.2c0-3.1,2.6-4.9,6-4.9c3.4,0,6,1.8,6,4.9c0,2.1-1.1,3.5-3,4.2
			c1.9,0.4,3.6,1.9,3.6,4.2c0,3.1-2.5,5-6.6,5C459.3,1026,456.8,1024,456.8,1021z M459.3,1020.8c0,2.1,1.5,3.3,4.2,3.3
			c2.7,0,4.1-1.2,4.1-3.3s-1.5-3.2-4.1-3.2C460.8,1017.7,459.3,1018.8,459.3,1020.8z M459.8,1012.7c0,2,1.5,3.1,3.7,3.1
			c2.2,0,3.7-1.1,3.7-3.1c0-2.2-1.5-3.3-3.7-3.3C461.3,1009.5,459.8,1010.5,459.8,1012.7z"/>
		<path d="M470.8,1010.2v-2.2h12.4v1.5c-4.4,4.6-5.8,10.2-5.9,16.2h-2.6c0.1-6.2,2.2-11.7,5.8-15.5H470.8z"/>
		<path d="M486.3,1017.5c0.6-2,2.4-3.6,5.3-3.6c3.8,0,6.2,2.5,6.2,6c0,3.6-2.5,6.1-6.4,6.1c-4.7,0-7.2-3.4-7.2-8.8
			c0-5.5,2.3-9.5,7.3-9.5c3.5,0,5.9,2,6.2,5.3l-2.3,0.1c-0.3-2.1-1.5-3.5-3.9-3.5C487.8,1009.6,486.3,1012.9,486.3,1017.5z
			 M491.3,1024c2.6,0,4.1-1.6,4.1-4.1c0-2.5-1.5-4.1-4.2-4.1c-2.7,0-4.2,1.6-4.2,4.1C487,1022.4,488.7,1024,491.3,1024z"/>
		<path d="M506.3,1021.4c0.2,1.9,1.5,2.9,3.6,2.9c1.6,0,2.8-0.6,2.8-1.8c0-1.1-0.8-1.5-2.3-1.8l-2.1-0.4c-2.3-0.4-3.7-1.3-3.7-3.4
			c0-2.2,1.9-3.8,4.7-3.8c3.2,0,5.2,1.5,5.4,4.3l-1.9,0.1c-0.3-1.9-1.4-2.7-3.5-2.7c-1.5,0-2.5,0.7-2.5,1.8c0,1,0.6,1.5,1.9,1.7
			l2.3,0.4c2.5,0.4,3.9,1.3,3.9,3.6c0,2.4-2.2,3.8-5,3.8c-3.1,0-5.4-1.4-5.6-4.5L506.3,1021.4z"/>
		<path d="M525.6,1013.4h2.3v12.2h-2.3v-2.2c-0.6,1.5-2.2,2.5-4,2.5c-3.2,0-4.4-2.1-4.4-5v-7.6h2.3v7.4c0,2,0.9,3.4,2.8,3.4
			c1.8,0,3.2-1.5,3.2-3.7V1013.4z"/>
		<path d="M532.8,1025.6h-1.8V1008h2.3v8c0.5-1.5,2.1-2.9,4.4-2.9c3.6,0,5.6,2.9,5.6,6.5c0,3.6-2,6.4-5.6,6.4
			c-2.3,0-3.9-1.3-4.4-2.9L532.8,1025.6z M533.3,1019.9c0,2.7,1.7,4.3,3.9,4.3c2.4,0,3.7-1.8,3.7-4.6c0-2.8-1.3-4.6-3.7-4.6
			c-2.2,0-3.9,1.6-3.9,4.2V1019.9z"/>
		<path d="M548.1,1027.3c0,2.2-1.1,3.4-3.3,3.4c-1,0-2.1-0.4-2.7-0.9l0.6-1.5c0.6,0.4,1.2,0.6,1.9,0.6c0.8,0,1.2-0.4,1.2-1.4v-14.1
			h2.3V1027.3z M545.7,1008h2.4v2.6h-2.4V1008z"/>
		<path d="M562.5,1021.5c-0.6,2.8-2.7,4.5-5.7,4.5c-3.6,0-6.3-2.5-6.3-6.3c0-3.9,2.7-6.6,6.2-6.6c3.9,0,5.9,2.8,5.9,6.1v0.9h-9.7
			c0.1,2.4,1.8,4.1,4,4.1c2,0,3.2-1,3.8-2.9L562.5,1021.5z M560.2,1018.6c-0.1-2-1.2-3.8-3.5-3.8c-2.2,0-3.5,1.7-3.8,3.8H560.2z"/>
		<path d="M570.6,1013.1c3.6,0,5.5,2.4,5.8,5.3l-2,0.1c-0.2-2.2-1.5-3.6-3.8-3.6c-2.3,0-3.9,1.8-3.9,4.6c0,2.8,1.6,4.6,3.9,4.6
			c2.3,0,3.6-1.5,3.8-3.7l2,0.2c-0.3,3-2.2,5.3-5.8,5.3c-3.7,0-6.3-2.5-6.3-6.4C564.3,1015.6,566.9,1013.1,570.6,1013.1z"/>
		<path d="M579.1,1015.1h-1.8v-1.3l0.8-0.1c1.1-0.2,1.4-0.8,1.7-2l0.4-1.7h1.3v3.4h3.4v1.7h-3.4v7.4c0,1.1,0.4,1.6,1.5,1.6
			c0.8,0,1.6-0.3,2.3-0.7v1.6c-0.9,0.7-1.8,1-3.1,1c-1.7,0-3-0.8-3-3.2V1015.1z"/>
		<path d="M588.3,1021.4c0.2,1.9,1.5,2.9,3.6,2.9c1.6,0,2.8-0.6,2.8-1.8c0-1.1-0.8-1.5-2.3-1.8l-2.1-0.4c-2.3-0.4-3.7-1.3-3.7-3.4
			c0-2.2,1.9-3.8,4.7-3.8c3.2,0,5.2,1.5,5.4,4.3l-1.9,0.1c-0.3-1.9-1.4-2.7-3.5-2.7c-1.5,0-2.5,0.7-2.5,1.8c0,1,0.6,1.5,1.9,1.7
			l2.3,0.4c2.5,0.4,3.9,1.3,3.9,3.6c0,2.4-2.2,3.8-5,3.8c-3.1,0-5.4-1.4-5.6-4.5L588.3,1021.4z"/>
		<path d="M604.4,1008h2.4v2.6h-2.4V1008z M606.8,1013.4v12.2h-2.3v-12.2H606.8z"/>
		<path d="M612.3,1025.6h-2.3v-12.2h2.3v2.2c0.6-1.5,2.2-2.5,4.1-2.5c3.2,0,4.5,2.1,4.5,5v7.6h-2.3v-7.4c0-2-1-3.3-2.9-3.3
			c-1.8,0-3.3,1.5-3.3,3.7V1025.6z"/>
		<path d="M641,1023.5v2.1h-13v-1.4l5-4.3c2.8-2.4,4.8-4.2,4.8-6.8c0-2.1-1.2-3.5-3.5-3.5c-2.4,0-3.8,1.5-3.8,4.1
			c0,0.5,0.1,1.1,0.2,1.6l-2.4-0.1c-0.1-0.6-0.2-1.1-0.2-1.7c0-3.6,2.4-5.9,6.2-5.9c4.1,0,6,2.4,6,5.4c0,3.2-2.7,5.6-5.3,7.7
			l-3.3,2.7H641z"/>
		<path d="M652.9,1018.9h3v2h-3v4.7h-2.4v-4.7h-9.3v-2.3l8.7-10.6h2.9V1018.9z M643.4,1018.9h7.2v-8.8L643.4,1018.9z"/>
		<path d="M672,1023.1c-0.6,1.5-2.1,2.9-4.4,2.9c-3.6,0-5.6-2.8-5.6-6.4c0-3.6,2-6.5,5.6-6.5c2.3,0,3.8,1.4,4.4,2.9v-8h2.3v17.6H672
			V1023.1z M672,1019.2c0-2.7-1.7-4.2-3.9-4.2c-2.4,0-3.8,1.8-3.8,4.6c0,2.8,1.3,4.6,3.8,4.6c2.2,0,3.9-1.6,3.9-4.3V1019.2z"/>
		<path d="M688.7,1021.5c-0.6,2.8-2.7,4.5-5.7,4.5c-3.6,0-6.3-2.5-6.3-6.3c0-3.9,2.7-6.6,6.2-6.6c3.9,0,5.9,2.8,5.9,6.1v0.9H679
			c0.1,2.4,1.8,4.1,4,4.1c2,0,3.2-1,3.8-2.9L688.7,1021.5z M686.4,1018.6c-0.1-2-1.2-3.8-3.5-3.8c-2.2,0-3.5,1.7-3.8,3.8H686.4z"/>
		<path d="M693.5,1030.3h-2.3v-16.9h2.3v2.6c0.5-1.5,2.1-2.9,4.4-2.9c3.6,0,5.6,2.9,5.6,6.5c0,3.6-2,6.4-5.6,6.4
			c-2.3,0-3.9-1.4-4.4-2.9V1030.3z M693.5,1019.9c0,2.7,1.7,4.3,3.9,4.3c2.4,0,3.7-1.8,3.7-4.6c0-2.8-1.3-4.6-3.7-4.6
			c-2.2,0-3.9,1.6-3.9,4.2V1019.9z"/>
		<path d="M715.8,1023.2c0,0.6,0.4,1,1,1c0.3,0,0.7-0.1,1.1-0.3v1.3c-0.4,0.4-0.9,0.7-1.9,0.7c-1.3,0-2.2-1-2.3-2.4
			c-0.7,1.4-2.4,2.5-4.4,2.5c-2.4,0-3.9-1.3-3.9-3.4c0-2.3,2-3.3,4.9-3.9l3.3-0.7v-0.5c0-1.7-1-2.7-2.7-2.7c-1.8,0-2.7,1-3.1,2.5
			l-2.1-0.3c0.5-2.3,2.3-4,5.2-4c3.1,0,4.9,1.6,4.9,4.7V1023.2z M713.5,1019.6l-2.7,0.6c-1.9,0.4-3.2,0.8-3.2,2.3
			c0,1,0.7,1.8,2.1,1.8c2.2,0,3.8-1.6,3.8-4.1V1019.6z"/>
		<path d="M726.9,1015.7c-0.7-0.4-1.1-0.5-1.9-0.5c-1.8,0-3.1,1.6-3.1,3.9v6.5h-2.3v-12.2h2.3v2.5c0.4-1.4,1.7-2.8,3.5-2.8
			c0.8,0,1.3,0.2,1.7,0.6L726.9,1015.7z"/>
		<path d="M729.6,1015.1h-1.8v-1.3l0.8-0.1c1.1-0.2,1.4-0.8,1.7-2l0.4-1.7h1.3v3.4h3.4v1.7h-3.4v7.4c0,1.1,0.4,1.6,1.5,1.6
			c0.8,0,1.6-0.3,2.3-0.7v1.6c-0.9,0.7-1.8,1-3.1,1c-1.7,0-3-0.8-3-3.2V1015.1z"/>
		<path d="M752.1,1013.1c3.2,0,4.3,2.2,4.3,5v7.6h-2.3v-7.4c0-2-0.8-3.3-2.7-3.3c-1.7,0-3.1,1.5-3.1,3.7v7h-2.3v-7.4
			c0-2-0.8-3.3-2.7-3.3c-1.7,0-3.1,1.5-3.1,3.7v7h-2.3v-12.2h2.3v2.2c0.6-1.5,2-2.5,3.9-2.5c2.2,0,3.5,1.1,4,2.7
			C748.6,1014.2,750.2,1013.1,752.1,1013.1z"/>
		<path d="M770.7,1021.5c-0.6,2.8-2.7,4.5-5.7,4.5c-3.6,0-6.3-2.5-6.3-6.3c0-3.9,2.7-6.6,6.2-6.6c3.9,0,5.9,2.8,5.9,6.1v0.9H761
			c0.1,2.4,1.8,4.1,4,4.1c2,0,3.2-1,3.8-2.9L770.7,1021.5z M768.4,1018.6c-0.1-2-1.2-3.8-3.5-3.8c-2.2,0-3.5,1.7-3.8,3.8H768.4z"/>
		<path d="M775.5,1025.6h-2.3v-12.2h2.3v2.2c0.6-1.5,2.2-2.5,4.1-2.5c3.2,0,4.5,2.1,4.5,5v7.6h-2.3v-7.4c0-2-1-3.3-2.9-3.3
			c-1.8,0-3.3,1.5-3.3,3.7V1025.6z"/>
		<path d="M787.5,1015.1h-1.8v-1.3l0.8-0.1c1.1-0.2,1.4-0.8,1.7-2l0.4-1.7h1.3v3.4h3.4v1.7h-3.4v7.4c0,1.1,0.4,1.6,1.5,1.6
			c0.8,0,1.6-0.3,2.3-0.7v1.6c-0.9,0.7-1.8,1-3.1,1c-1.7,0-3-0.8-3-3.2V1015.1z"/>
		<path d="M796.7,1021.4c0.2,1.9,1.5,2.9,3.6,2.9c1.6,0,2.8-0.6,2.8-1.8c0-1.1-0.8-1.5-2.3-1.8l-2.1-0.4c-2.3-0.4-3.7-1.3-3.7-3.4
			c0-2.2,1.9-3.8,4.7-3.8c3.2,0,5.2,1.5,5.4,4.3l-1.9,0.1c-0.3-1.9-1.4-2.7-3.5-2.7c-1.5,0-2.5,0.7-2.5,1.8c0,1,0.6,1.5,1.9,1.7
			l2.3,0.4c2.5,0.4,3.9,1.3,3.9,3.6c0,2.4-2.2,3.8-5,3.8c-3.1,0-5.4-1.4-5.6-4.5L796.7,1021.4z"/>
		<path d="M823.9,1022.7h0.1l2.8-9.3h2.2l-3.9,12.2h-2.2l-2.6-9.1h-0.1l-2.6,9.1h-2.2l-3.9-12.2h2.3l2.9,9.3h0.1l2.6-9.3h2
			L823.9,1022.7z"/>
		<path d="M830.7,1008h2.4v2.6h-2.4V1008z M833.1,1013.4v12.2h-2.3v-12.2H833.1z"/>
		<path d="M836.7,1015.1h-1.8v-1.3l0.8-0.1c1.1-0.2,1.4-0.8,1.7-2l0.4-1.7h1.3v3.4h3.4v1.7H839v7.4c0,1.1,0.4,1.6,1.5,1.6
			c0.8,0,1.6-0.3,2.3-0.7v1.6c-0.9,0.7-1.8,1-3.1,1c-1.7,0-3-0.8-3-3.2V1015.1z"/>
		<path d="M847.1,1025.6h-2.3V1008h2.3v7.6c0.6-1.5,2.2-2.5,4.1-2.5c3.2,0,4.5,2.1,4.5,5v7.6h-2.3v-7.4c0-2-1-3.3-2.9-3.3
			c-1.8,0-3.3,1.5-3.3,3.7V1025.6z"/>
		<path d="M864.8,1021.4c0.2,1.9,1.5,2.9,3.6,2.9c1.6,0,2.8-0.6,2.8-1.8c0-1.1-0.8-1.5-2.3-1.8l-2.1-0.4c-2.3-0.4-3.7-1.3-3.7-3.4
			c0-2.2,1.9-3.8,4.7-3.8c3.2,0,5.2,1.5,5.4,4.3l-1.9,0.1c-0.3-1.9-1.4-2.7-3.5-2.7c-1.5,0-2.5,0.7-2.5,1.8c0,1,0.6,1.5,1.9,1.7
			l2.3,0.4c2.5,0.4,3.9,1.3,3.9,3.6c0,2.4-2.2,3.8-5,3.8c-3.1,0-5.4-1.4-5.6-4.5L864.8,1021.4z"/>
		<path d="M884.1,1013.4h2.3v12.2h-2.3v-2.2c-0.6,1.5-2.2,2.5-4,2.5c-3.2,0-4.4-2.1-4.4-5v-7.6h2.3v7.4c0,2,0.9,3.4,2.8,3.4
			c1.8,0,3.2-1.5,3.2-3.7V1013.4z"/>
		<path d="M892.4,1015.1v10.6h-2.3v-10.6h-1.9v-1.7h1.9v-1.3c0-2.5,1.6-4.1,3.9-4.1c1.4,0,2.3,0.4,3,0.9l-0.6,1.5
			c-0.6-0.4-1.3-0.7-2-0.7c-1.3,0-1.9,0.9-1.9,2.4v1.3h5.1v-0.9c0-3,1.7-4.9,4.7-4.9c2.4,0,3.8,1,4.5,3l-1.8,0.6
			c-0.4-1.1-1.2-1.8-2.5-1.8c-1.5,0-2.5,1-2.5,2.9v1.1h7.4v12.2h-2.3v-10.6h-5.1v10.6h-2.3v-10.6H892.4z"/>
		<path d="M915.9,1013.1c3.6,0,5.5,2.4,5.8,5.3l-2,0.1c-0.2-2.2-1.5-3.6-3.8-3.6c-2.3,0-3.9,1.8-3.9,4.6c0,2.8,1.6,4.6,3.9,4.6
			c2.3,0,3.6-1.5,3.8-3.7l2,0.2c-0.3,3-2.2,5.3-5.8,5.3c-3.7,0-6.3-2.5-6.3-6.4C909.6,1015.6,912.2,1013.1,915.9,1013.1z"/>
		<path d="M923.9,1008h2.4v2.6h-2.4V1008z M926.3,1013.4v12.2H924v-12.2H926.3z"/>
		<path d="M940.7,1021.5c-0.6,2.8-2.7,4.5-5.7,4.5c-3.6,0-6.3-2.5-6.3-6.3c0-3.9,2.7-6.6,6.2-6.6c3.9,0,5.9,2.8,5.9,6.1v0.9H931
			c0.1,2.4,1.8,4.1,4,4.1c2,0,3.2-1,3.8-2.9L940.7,1021.5z M938.4,1018.6c-0.1-2-1.2-3.8-3.5-3.8c-2.2,0-3.5,1.7-3.8,3.8H938.4z"/>
		<path d="M945.5,1025.6h-2.3v-12.2h2.3v2.2c0.6-1.5,2.2-2.5,4.1-2.5c3.2,0,4.5,2.1,4.5,5v7.6h-2.3v-7.4c0-2-1-3.3-2.9-3.3
			c-1.8,0-3.3,1.5-3.3,3.7V1025.6z"/>
		<path d="M957.5,1015.1h-1.8v-1.3l0.8-0.1c1.1-0.2,1.4-0.8,1.7-2l0.4-1.7h1.3v3.4h3.4v1.7h-3.4v7.4c0,1.1,0.4,1.6,1.5,1.6
			c0.8,0,1.6-0.3,2.3-0.7v1.6c-0.9,0.7-1.8,1-3.1,1c-1.7,0-3-0.8-3-3.2V1015.1z"/>
		<path d="M979.9,1023.1c-0.6,1.5-2.1,2.9-4.4,2.9c-3.6,0-5.6-2.8-5.6-6.4c0-3.6,2-6.5,5.6-6.5c2.3,0,3.8,1.4,4.4,2.9v-8h2.3v17.6
			h-2.3V1023.1z M979.9,1019.2c0-2.7-1.7-4.2-3.9-4.2c-2.4,0-3.8,1.8-3.8,4.6c0,2.8,1.3,4.6,3.8,4.6c2.2,0,3.9-1.6,3.9-4.3V1019.2z"
			/>
		<path d="M995.2,1023.2c0,0.6,0.4,1,1,1c0.3,0,0.7-0.1,1.1-0.3v1.3c-0.4,0.4-0.9,0.7-1.9,0.7c-1.3,0-2.2-1-2.3-2.4
			c-0.7,1.4-2.4,2.5-4.4,2.5c-2.4,0-3.9-1.3-3.9-3.4c0-2.3,2-3.3,4.9-3.9l3.3-0.7v-0.5c0-1.7-1-2.7-2.7-2.7c-1.8,0-2.7,1-3.1,2.5
			l-2.1-0.3c0.5-2.3,2.3-4,5.2-4c3.1,0,4.9,1.6,4.9,4.7V1023.2z M993,1019.6l-2.7,0.6c-1.9,0.4-3.2,0.8-3.2,2.3c0,1,0.7,1.8,2.1,1.8
			c2.2,0,3.8-1.6,3.8-4.1V1019.6z"/>
		<path d="M999.4,1015.1h-1.8v-1.3l0.8-0.1c1.1-0.2,1.4-0.8,1.7-2l0.4-1.7h1.3v3.4h3.4v1.7h-3.4v7.4c0,1.1,0.4,1.6,1.5,1.6
			c0.8,0,1.6-0.3,2.3-0.7v1.6c-0.9,0.7-1.8,1-3.1,1c-1.7,0-3-0.8-3-3.2V1015.1z"/>
		<path d="M1017.4,1023.2c0,0.6,0.4,1,1,1c0.3,0,0.7-0.1,1.1-0.3v1.3c-0.4,0.4-0.9,0.7-1.9,0.7c-1.3,0-2.2-1-2.3-2.4
			c-0.7,1.4-2.4,2.5-4.4,2.5c-2.4,0-3.9-1.3-3.9-3.4c0-2.3,2-3.3,4.9-3.9l3.3-0.7v-0.5c0-1.7-1-2.7-2.7-2.7c-1.8,0-2.7,1-3.1,2.5
			l-2.1-0.3c0.5-2.3,2.3-4,5.2-4c3.1,0,4.9,1.6,4.9,4.7V1023.2z M1015.1,1019.6l-2.7,0.6c-1.9,0.4-3.2,0.8-3.2,2.3
			c0,1,0.7,1.8,2.1,1.8c2.2,0,3.8-1.6,3.8-4.1V1019.6z"/>
		<path d="M1031.7,1026c-3.6,0-6.2-2.6-6.2-6.4c0-3.8,2.6-6.5,6.2-6.5c3.6,0,6.3,2.7,6.3,6.5C1037.9,1023.3,1035.3,1026,1031.7,1026
			z M1031.7,1024.2c2.5,0,3.9-1.9,3.9-4.6c0-2.7-1.4-4.6-3.9-4.6c-2.5,0-3.8,1.9-3.8,4.6C1027.8,1022.2,1029.2,1024.2,1031.7,1024.2
			z"/>
		<path d="M1042.7,1025.6h-2.3v-12.2h2.3v2.2c0.6-1.5,2.2-2.5,4.1-2.5c3.2,0,4.5,2.1,4.5,5v7.6h-2.3v-7.4c0-2-1-3.3-2.9-3.3
			c-1.8,0-3.3,1.5-3.3,3.7V1025.6z"/>
		<path d="M1061,1025.6h-1.8V1008h2.3v8c0.5-1.5,2.1-2.9,4.4-2.9c3.6,0,5.6,2.9,5.6,6.5c0,3.6-2,6.4-5.6,6.4c-2.3,0-3.9-1.3-4.4-2.9
			L1061,1025.6z M1061.5,1019.9c0,2.7,1.7,4.3,3.9,4.3c2.4,0,3.7-1.8,3.7-4.6c0-2.8-1.3-4.6-3.7-4.6c-2.2,0-3.9,1.6-3.9,4.2V1019.9z
			"/>
		<path d="M1079.5,1026c-3.6,0-6.2-2.6-6.2-6.4c0-3.8,2.6-6.5,6.2-6.5c3.6,0,6.3,2.7,6.3,6.5C1085.8,1023.3,1083.1,1026,1079.5,1026
			z M1079.5,1024.2c2.5,0,3.9-1.9,3.9-4.6c0-2.7-1.4-4.6-3.9-4.6c-2.5,0-3.8,1.9-3.8,4.6C1075.7,1022.2,1077.1,1024.2,1079.5,1024.2
			z"/>
		<path d="M1088.6,1015.1h-1.8v-1.3l0.8-0.1c1.1-0.2,1.4-0.8,1.7-2l0.4-1.7h1.3v3.4h3.4v1.7h-3.4v7.4c0,1.1,0.4,1.6,1.5,1.6
			c0.8,0,1.6-0.3,2.3-0.7v1.6c-0.9,0.7-1.8,1-3.1,1c-1.7,0-3-0.8-3-3.2V1015.1z"/>
		<path d="M1099.1,1025.6h-2.3V1008h2.3v7.6c0.6-1.5,2.2-2.5,4.1-2.5c3.2,0,4.5,2.1,4.5,5v7.6h-2.3v-7.4c0-2-1-3.3-2.9-3.3
			c-1.8,0-3.3,1.5-3.3,3.7V1025.6z"/>
		<path d="M1123,1015.7c-0.7-0.4-1.1-0.5-1.9-0.5c-1.8,0-3.1,1.6-3.1,3.9v6.5h-2.3v-12.2h2.3v2.5c0.4-1.4,1.7-2.8,3.5-2.8
			c0.8,0,1.3,0.2,1.7,0.6L1123,1015.7z"/>
		<path d="M1134.6,1023.2c0,0.6,0.4,1,1,1c0.3,0,0.7-0.1,1.1-0.3v1.3c-0.4,0.4-0.9,0.7-1.9,0.7c-1.3,0-2.2-1-2.3-2.4
			c-0.7,1.4-2.4,2.5-4.4,2.5c-2.4,0-3.9-1.3-3.9-3.4c0-2.3,2-3.3,4.9-3.9l3.3-0.7v-0.5c0-1.7-1-2.7-2.7-2.7c-1.8,0-2.7,1-3.1,2.5
			l-2.1-0.3c0.5-2.3,2.3-4,5.2-4c3.1,0,4.9,1.6,4.9,4.7V1023.2z M1132.4,1019.6l-2.7,0.6c-1.9,0.4-3.2,0.8-3.2,2.3
			c0,1,0.7,1.8,2.1,1.8c2.2,0,3.8-1.6,3.8-4.1V1019.6z"/>
		<path d="M1143.8,1013.1c3.6,0,5.5,2.4,5.8,5.3l-2,0.1c-0.2-2.2-1.5-3.6-3.8-3.6c-2.3,0-3.9,1.8-3.9,4.6c0,2.8,1.6,4.6,3.9,4.6
			c2.3,0,3.6-1.5,3.8-3.7l2,0.2c-0.3,3-2.2,5.3-5.8,5.3c-3.7,0-6.3-2.5-6.3-6.4C1137.6,1015.6,1140.1,1013.1,1143.8,1013.1z"/>
		<path d="M1163.3,1021.5c-0.6,2.8-2.7,4.5-5.7,4.5c-3.6,0-6.3-2.5-6.3-6.3c0-3.9,2.7-6.6,6.2-6.6c3.9,0,5.9,2.8,5.9,6.1v0.9h-9.7
			c0.1,2.4,1.8,4.1,4,4.1c2,0,3.2-1,3.8-2.9L1163.3,1021.5z M1161,1018.6c-0.1-2-1.2-3.8-3.5-3.8c-2.2,0-3.5,1.7-3.8,3.8H1161z"/>
		<path d="M1180.7,1023.2c0,0.6,0.4,1,1,1c0.3,0,0.7-0.1,1.1-0.3v1.3c-0.4,0.4-0.9,0.7-1.9,0.7c-1.3,0-2.2-1-2.3-2.4
			c-0.7,1.4-2.4,2.5-4.4,2.5c-2.4,0-3.9-1.3-3.9-3.4c0-2.3,2-3.3,4.9-3.9l3.3-0.7v-0.5c0-1.7-1-2.7-2.7-2.7c-1.8,0-2.7,1-3.1,2.5
			l-2.1-0.3c0.5-2.3,2.3-4,5.2-4c3.1,0,4.9,1.6,4.9,4.7V1023.2z M1178.4,1019.6l-2.7,0.6c-1.9,0.4-3.2,0.8-3.2,2.3
			c0,1,0.7,1.8,2.1,1.8c2.2,0,3.8-1.6,3.8-4.1V1019.6z"/>
		<path d="M1186.8,1025.6h-2.3v-12.2h2.3v2.2c0.6-1.5,2.2-2.5,4.1-2.5c3.2,0,4.5,2.1,4.5,5v7.6h-2.3v-7.4c0-2-1-3.3-2.9-3.3
			c-1.8,0-3.3,1.5-3.3,3.7V1025.6z"/>
		<path d="M1207.6,1023.1c-0.6,1.5-2.1,2.9-4.4,2.9c-3.6,0-5.6-2.8-5.6-6.4c0-3.6,2-6.5,5.6-6.5c2.3,0,3.8,1.4,4.4,2.9v-8h2.3v17.6
			h-2.3V1023.1z M1207.6,1019.2c0-2.7-1.7-4.2-3.9-4.2c-2.4,0-3.8,1.8-3.8,4.6c0,2.8,1.3,4.6,3.8,4.6c2.2,0,3.9-1.6,3.9-4.3V1019.2z
			"/>
		<path d="M1228,1023.2c0,0.6,0.4,1,1,1c0.3,0,0.7-0.1,1.1-0.3v1.3c-0.4,0.4-0.9,0.7-1.9,0.7c-1.3,0-2.2-1-2.3-2.4
			c-0.7,1.4-2.4,2.5-4.4,2.5c-2.4,0-3.9-1.3-3.9-3.4c0-2.3,2-3.3,4.9-3.9l3.3-0.7v-0.5c0-1.7-1-2.7-2.7-2.7c-1.8,0-2.7,1-3.1,2.5
			l-2.1-0.3c0.5-2.3,2.3-4,5.2-4c3.1,0,4.9,1.6,4.9,4.7V1023.2z M1225.7,1019.6l-2.7,0.6c-1.9,0.4-3.2,0.8-3.2,2.3
			c0,1,0.7,1.8,2.1,1.8c2.2,0,3.8-1.6,3.8-4.1V1019.6z"/>
		<path d="M1239.1,1015.7c-0.7-0.4-1.1-0.5-1.9-0.5c-1.8,0-3.1,1.6-3.1,3.9v6.5h-2.3v-12.2h2.3v2.5c0.4-1.4,1.7-2.8,3.5-2.8
			c0.8,0,1.3,0.2,1.7,0.6L1239.1,1015.7z"/>
		<path d="M1255.4,1013.1c3.2,0,4.3,2.2,4.3,5v7.6h-2.3v-7.4c0-2-0.8-3.3-2.7-3.3c-1.7,0-3.1,1.5-3.1,3.7v7h-2.3v-7.4
			c0-2-0.8-3.3-2.7-3.3c-1.7,0-3.1,1.5-3.1,3.7v7h-2.3v-12.2h2.3v2.2c0.6-1.5,2-2.5,3.9-2.5c2.2,0,3.5,1.1,4,2.7
			C1251.9,1014.2,1253.5,1013.1,1255.4,1013.1z"/>
		<path d="M1274,1021.5c-0.6,2.8-2.7,4.5-5.7,4.5c-3.6,0-6.3-2.5-6.3-6.3c0-3.9,2.7-6.6,6.2-6.6c3.9,0,5.9,2.8,5.9,6.1v0.9h-9.7
			c0.1,2.4,1.8,4.1,4,4.1c2,0,3.2-1,3.8-2.9L1274,1021.5z M1271.7,1018.6c-0.1-2-1.2-3.8-3.5-3.8c-2.2,0-3.5,1.7-3.8,3.8H1271.7z"/>
		<path d="M1285.8,1023.1c-0.6,1.5-2.1,2.9-4.4,2.9c-3.6,0-5.6-2.8-5.6-6.4c0-3.6,2-6.5,5.6-6.5c2.3,0,3.8,1.4,4.4,2.9v-8h2.3v17.6
			h-2.3V1023.1z M1285.8,1019.2c0-2.7-1.7-4.2-3.9-4.2c-2.4,0-3.8,1.8-3.8,4.6c0,2.8,1.3,4.6,3.8,4.6c2.2,0,3.9-1.6,3.9-4.3V1019.2z
			"/>
		<path d="M1297.4,1021.4c0.2,1.9,1.5,2.9,3.6,2.9c1.6,0,2.8-0.6,2.8-1.8c0-1.1-0.8-1.5-2.3-1.8l-2.1-0.4c-2.3-0.4-3.7-1.3-3.7-3.4
			c0-2.2,1.9-3.8,4.7-3.8c3.2,0,5.2,1.5,5.4,4.3l-1.9,0.1c-0.3-1.9-1.4-2.7-3.5-2.7c-1.5,0-2.5,0.7-2.5,1.8c0,1,0.6,1.5,1.9,1.7
			l2.3,0.4c2.5,0.4,3.9,1.3,3.9,3.6c0,2.4-2.2,3.8-5,3.8c-3.1,0-5.4-1.4-5.6-4.5L1297.4,1021.4z"/>
		<path d="M1308.8,1015.1h-1.8v-1.3l0.8-0.1c1.1-0.2,1.4-0.8,1.7-2l0.4-1.7h1.3v3.4h3.4v1.7h-3.4v7.4c0,1.1,0.4,1.6,1.5,1.6
			c0.8,0,1.6-0.3,2.3-0.7v1.6c-0.9,0.7-1.8,1-3.1,1c-1.7,0-3-0.8-3-3.2V1015.1z"/>
		<path d="M1326.8,1023.2c0,0.6,0.4,1,1,1c0.3,0,0.7-0.1,1.1-0.3v1.3c-0.4,0.4-0.9,0.7-1.9,0.7c-1.3,0-2.2-1-2.3-2.4
			c-0.7,1.4-2.4,2.5-4.4,2.5c-2.4,0-3.9-1.3-3.9-3.4c0-2.3,2-3.3,4.9-3.9l3.3-0.7v-0.5c0-1.7-1-2.7-2.7-2.7c-1.8,0-2.7,1-3.1,2.5
			l-2.1-0.3c0.5-2.3,2.3-4,5.2-4c3.1,0,4.9,1.6,4.9,4.7V1023.2z M1324.6,1019.6l-2.7,0.6c-1.9,0.4-3.2,0.8-3.2,2.3
			c0,1,0.7,1.8,2.1,1.8c2.2,0,3.8-1.6,3.8-4.1V1019.6z"/>
		<path d="M1331,1015.1h-1.8v-1.3l0.8-0.1c1.1-0.2,1.4-0.8,1.7-2l0.4-1.7h1.3v3.4h3.4v1.7h-3.4v7.4c0,1.1,0.4,1.6,1.5,1.6
			c0.8,0,1.6-0.3,2.3-0.7v1.6c-0.9,0.7-1.8,1-3.1,1c-1.7,0-3-0.8-3-3.2V1015.1z"/>
		<path d="M1347.3,1013.4h2.3v12.2h-2.3v-2.2c-0.6,1.5-2.2,2.5-4,2.5c-3.2,0-4.4-2.1-4.4-5v-7.6h2.3v7.4c0,2,0.9,3.4,2.8,3.4
			c1.8,0,3.2-1.5,3.2-3.7V1013.4z"/>
		<path d="M1353.9,1021.4c0.2,1.9,1.5,2.9,3.6,2.9c1.6,0,2.8-0.6,2.8-1.8c0-1.1-0.8-1.5-2.3-1.8l-2.1-0.4c-2.3-0.4-3.7-1.3-3.7-3.4
			c0-2.2,1.9-3.8,4.7-3.8c3.2,0,5.2,1.5,5.4,4.3l-1.9,0.1c-0.3-1.9-1.4-2.7-3.5-2.7c-1.5,0-2.5,0.7-2.5,1.8c0,1,0.6,1.5,1.9,1.7
			l2.3,0.4c2.5,0.4,3.9,1.3,3.9,3.6c0,2.4-2.2,3.8-5,3.8c-3.1,0-5.4-1.4-5.6-4.5L1353.9,1021.4z"/>
	</g>
</g>
<g id="Axis">
	<line class="st2" x1="575" y1="332.9" x2="575" y2="905.9"/>
	<line class="st2" x1="958.6" y1="332.9" x2="958.6" y2="905.9"/>
	<g>
		<rect x="1690.6" y="885" class="st1" width="185" height="108"/>
		<path d="M1693.6,939v-2.5h7v-14.1h-6.2v-2.2h1.9c3.7,0,4.7-0.7,5.4-3.3h2v19.7h6.5v2.5H1693.6z"/>
		<path d="M1722.8,939.4c-5.4,0-8.9-4.1-8.9-11.4c0-7.3,3.5-11.4,8.9-11.4s8.9,4.1,8.9,11.4C1731.7,935.3,1728.2,939.4,1722.8,939.4
			z M1722.8,919c-3.6,0-5.7,3-5.7,9c0,6,2.1,9,5.7,9c3.6,0,5.7-3,5.7-9C1728.5,922,1726.4,919,1722.8,919z"/>
		<path d="M1744.3,939.4c-5.4,0-8.9-4.1-8.9-11.4c0-7.3,3.5-11.4,8.9-11.4s8.9,4.1,8.9,11.4C1753.2,935.3,1749.6,939.4,1744.3,939.4
			z M1744.3,919c-3.6,0-5.7,3-5.7,9c0,6,2.1,9,5.7,9c3.6,0,5.7-3,5.7-9C1750,922,1747.9,919,1744.3,919z"/>
		<path d="M1760.5,916.5c2.6,0,4.7,2.3,4.7,5.2c0,2.8-2.1,5.1-4.7,5.1c-2.6,0-4.7-2.3-4.7-5.1
			C1755.8,918.9,1757.9,916.5,1760.5,916.5z M1773,916.9h2.1l-16.6,22.1h-2.1L1773,916.9z M1760.5,918.5c-1.6,0-2.8,1.5-2.8,3.3
			c0,1.7,1.2,3.2,2.8,3.2c1.6,0,2.8-1.5,2.8-3.2C1763.3,920,1762.1,918.5,1760.5,918.5z M1771,939.4c-2.6,0-4.7-2.3-4.7-5.1
			s2.1-5.1,4.7-5.1c2.6,0,4.7,2.3,4.7,5.1S1773.6,939.4,1771,939.4z M1771,937.5c1.6,0,2.8-1.5,2.8-3.3s-1.2-3.2-2.8-3.2
			s-2.8,1.5-2.8,3.2S1769.4,937.5,1771,937.5z"/>
	</g>
	<g>
		<rect x="551.6" y="885" class="st1" width="185" height="108"/>
		<path d="M570.3,936.4v2.6h-16.2v-1.8l6.3-5.4c3.5-3,6.1-5.3,6.1-8.5c0-2.6-1.5-4.3-4.5-4.3c-3,0-4.7,1.9-4.7,5.1
			c0,0.7,0.1,1.4,0.4,2l-3-0.1c-0.2-0.7-0.3-1.4-0.3-2.1c0-4.5,3-7.4,7.7-7.4c5.1,0,7.6,3,7.6,6.8c0,4-3.6,7.1-6.7,9.7l-4.1,3.4
			H570.3z"/>
		<path d="M578.4,931.8c0.1,3.1,2.1,5.2,5.6,5.2c3.1,0,5.1-2.1,5.1-5.3c0-2.9-1.9-5.1-5-5.1c-2.2,0-3.9,1.1-4.7,2.5l-3-0.5
			c0.5-3.2,1.2-8.2,1.3-11.6h13.1c0.2,1.7-0.3,2.9-2.4,2.9c-1.7,0-6.2-0.4-8.4-0.5c-0.1,1.3-0.6,6.2-0.8,7.4c1-1.3,2.9-2.4,5.5-2.4
			c4.8,0,7.5,3.4,7.5,7.5c0,4.5-3.4,7.7-8.2,7.7c-4.9,0-8.3-2.8-8.6-7L578.4,931.8z"/>
		<path d="M600.1,916.5c2.6,0,4.7,2.3,4.7,5.2c0,2.8-2.1,5.1-4.7,5.1c-2.6,0-4.7-2.3-4.7-5.1C595.3,918.9,597.5,916.5,600.1,916.5z
			 M612.5,916.9h2.1L598.1,939H596L612.5,916.9z M600.1,918.5c-1.6,0-2.8,1.5-2.8,3.3c0,1.7,1.2,3.2,2.8,3.2s2.8-1.5,2.8-3.2
			C602.9,920,601.7,918.5,600.1,918.5z M610.5,939.4c-2.6,0-4.7-2.3-4.7-5.1s2.1-5.1,4.7-5.1c2.6,0,4.7,2.3,4.7,5.1
			S613.2,939.4,610.5,939.4z M610.5,937.5c1.6,0,2.8-1.5,2.8-3.3s-1.2-3.2-2.8-3.2c-1.6,0-2.8,1.5-2.8,3.2S608.9,937.5,610.5,937.5z
			"/>
	</g>
	<g>
		<rect x="935.2" y="885" class="st1" width="185" height="108"/>
		<path d="M940.6,931.8c0.1,3.1,2.1,5.2,5.6,5.2c3.1,0,5.1-2.1,5.1-5.3c0-2.9-1.9-5.1-5-5.1c-2.2,0-3.9,1.1-4.7,2.5l-3-0.5
			c0.5-3.2,1.2-8.2,1.3-11.6H953c0.2,1.7-0.3,2.9-2.4,2.9c-1.7,0-6.2-0.4-8.4-0.5c-0.1,1.3-0.6,6.2-0.8,7.4c1-1.3,2.9-2.4,5.5-2.4
			c4.8,0,7.5,3.4,7.5,7.5c0,4.5-3.4,7.7-8.2,7.7c-4.9,0-8.3-2.8-8.6-7L940.6,931.8z"/>
		<path d="M967.5,939.4c-5.4,0-8.9-4.1-8.9-11.4c0-7.3,3.5-11.4,8.9-11.4s8.9,4.1,8.9,11.4C976.4,935.3,972.8,939.4,967.5,939.4z
			 M967.5,919c-3.6,0-5.7,3-5.7,9c0,6,2.1,9,5.7,9c3.6,0,5.7-3,5.7-9C973.2,922,971.1,919,967.5,919z"/>
		<path d="M983.7,916.5c2.6,0,4.7,2.3,4.7,5.2c0,2.8-2.1,5.1-4.7,5.1c-2.6,0-4.7-2.3-4.7-5.1C979,918.9,981.1,916.5,983.7,916.5z
			 M996.2,916.9h2.1L981.7,939h-2.1L996.2,916.9z M983.7,918.5c-1.6,0-2.8,1.5-2.8,3.3c0,1.7,1.2,3.2,2.8,3.2c1.6,0,2.8-1.5,2.8-3.2
			C986.5,920,985.3,918.5,983.7,918.5z M994.2,939.4c-2.6,0-4.7-2.3-4.7-5.1s2.1-5.1,4.7-5.1c2.6,0,4.7,2.3,4.7,5.1
			S996.8,939.4,994.2,939.4z M994.2,937.5c1.6,0,2.8-1.5,2.8-3.3s-1.2-3.2-2.8-3.2s-2.8,1.5-2.8,3.2S992.6,937.5,994.2,937.5z"/>
	</g>
	<line class="st1" x1="111.8" y1="662.2" x2="112.5" y2="663.6"/>
	<g>
		<rect x="177.6" y="885" class="st1" width="185" height="108"/>
		<path d="M188.4,939.4c-5.4,0-8.9-4.1-8.9-11.4c0-7.3,3.5-11.4,8.9-11.4s8.9,4.1,8.9,11.4C197.3,935.3,193.7,939.4,188.4,939.4z
			 M188.4,919c-3.6,0-5.7,3-5.7,9c0,6,2.1,9,5.7,9c3.6,0,5.7-3,5.7-9C194.1,922,192,919,188.4,919z"/>
		<path d="M204.6,916.5c2.6,0,4.7,2.3,4.7,5.2c0,2.8-2.1,5.1-4.7,5.1c-2.6,0-4.7-2.3-4.7-5.1C199.9,918.9,202,916.5,204.6,916.5z
			 M217.1,916.9h2.1L202.6,939h-2.1L217.1,916.9z M204.6,918.5c-1.6,0-2.8,1.5-2.8,3.3c0,1.7,1.2,3.2,2.8,3.2s2.8-1.5,2.8-3.2
			C207.4,920,206.2,918.5,204.6,918.5z M215.1,939.4c-2.6,0-4.7-2.3-4.7-5.1s2.1-5.1,4.7-5.1c2.6,0,4.7,2.3,4.7,5.1
			S217.7,939.4,215.1,939.4z M215.1,937.5c1.6,0,2.8-1.5,2.8-3.3s-1.2-3.2-2.8-3.2c-1.6,0-2.8,1.5-2.8,3.2S213.5,937.5,215.1,937.5z
			"/>
	</g>
	<g>
		<rect x="1318.2" y="885" class="st1" width="185" height="108"/>
		<path d="M1320.5,919.7v-2.7h16.6v1.9c-5.5,5.7-7.5,12.7-7.5,20.2h-3.3c0.1-7.8,3-14.7,7.4-19.3H1320.5z"/>
		<path d="M1345,931.8c0.1,3.1,2.1,5.2,5.6,5.2c3.1,0,5.1-2.1,5.1-5.3c0-2.9-1.9-5.1-5-5.1c-2.2,0-3.8,1.1-4.7,2.5l-3-0.5
			c0.5-3.2,1.2-8.2,1.3-11.6h13.1c0.2,1.7-0.3,2.9-2.4,2.9c-1.7,0-6.2-0.4-8.4-0.5c-0.1,1.3-0.6,6.2-0.8,7.4c1-1.3,2.9-2.4,5.5-2.4
			c4.8,0,7.5,3.4,7.5,7.5c0,4.5-3.4,7.7-8.2,7.7c-4.9,0-8.3-2.8-8.6-7L1345,931.8z"/>
		<path d="M1366.6,916.5c2.6,0,4.7,2.3,4.7,5.2c0,2.8-2.1,5.1-4.7,5.1c-2.6,0-4.7-2.3-4.7-5.1
			C1361.9,918.9,1364.1,916.5,1366.6,916.5z M1379.1,916.9h2.1l-16.6,22.1h-2.1L1379.1,916.9z M1366.6,918.5c-1.6,0-2.8,1.5-2.8,3.3
			c0,1.7,1.2,3.2,2.8,3.2c1.6,0,2.8-1.5,2.8-3.2C1369.4,920,1368.3,918.5,1366.6,918.5z M1377.1,939.4c-2.6,0-4.7-2.3-4.7-5.1
			s2.1-5.1,4.7-5.1c2.6,0,4.7,2.3,4.7,5.1S1379.7,939.4,1377.1,939.4z M1377.1,937.5c1.6,0,2.8-1.5,2.8-3.3s-1.2-3.2-2.8-3.2
			s-2.8,1.5-2.8,3.2S1375.5,937.5,1377.1,937.5z"/>
	</g>
	<line class="st2" x1="1342.3" y1="332.9" x2="1342.3" y2="905.9"/>
</g>
<g id="races">
	<rect x="940.9" y="706.7" class="st3" width="251.1" height="164.4"/>
	<rect x="1192" y="706.7" class="st4" width="130.8" height="164.4"/>
	<rect x="1322.8" y="706.7" class="st5" width="81.3" height="164.4"/>
	<rect x="1404.2" y="706.7" class="st6" width="35.3" height="164.4"/>
	<rect x="1439.6" y="706.7" class="st7" width="286.4" height="164.4"/>
	<rect x="1006.2" y="514.4" class="st3" width="95.2" height="164.4"/>
	<rect x="1101.3" y="514.4" class="st4" width="124.1" height="164.4"/>
	<rect x="1225.4" y="514.4" class="st5" width="74.5" height="164.4"/>
	<rect x="1299.9" y="514.4" class="st6" width="45.5" height="164.4"/>
	<rect x="1345.4" y="514.4" class="st7" width="380.6" height="164.4"/>
	<rect x="1073.2" y="332.9" class="st3" width="89.7" height="164.4"/>
	<rect x="1162.9" y="332.9" class="st4" width="74.5" height="164.4"/>
	<rect x="1237.3" y="332.9" class="st5" width="103.1" height="164.4"/>
	<rect x="1340.4" y="332.9" class="st6" width="55.4" height="164.4"/>
	<rect x="1395.8" y="332.9" class="st7" width="330.2" height="164.4"/>
	<line class="st2" x1="1726" y1="332.9" x2="1726" y2="904.7"/>
	<line class="st2" x1="191.3" y1="332.9" x2="191.3" y2="904.7"/>
	<g>
		<rect x="191.3" y="252.1" class="st1" width="67.3" height="55.4"/>
		<path class="st8" d="M191.8,297.9c0-5,3.7-8.5,8.5-8.5c4.8,0,7.6,2.6,8,6.7l-4.3,0.2c-0.2-1.8-1.5-2.9-3.6-2.9c-2.6,0-4,1.8-4,4.6
			c0,2.9,1.5,4.8,4.3,4.8c1.4,0,2.8-0.6,3.5-1.9h-3.6v-3.2h7.8v8.5h-3.8v-1.8c-0.9,1.5-2.7,2.1-4.8,2.1
			C195.3,306.4,191.8,303,191.8,297.9z"/>
		<path class="st8" d="M210.7,299.6v-9.9h4.4v9.2c0,2.5,0.8,3.8,3,3.8c2.3,0,3-1.3,3-3.8v-9.2h4.4v9.9c0,4.8-3.2,6.8-7.5,6.8
			C213.9,306.4,210.7,304.4,210.7,299.6z"/>
		<path class="st8" d="M238.5,298.8v-9.1h4.1v16.4h-3.5l-7.1-9.7v9.7h-4.1v-16.4h4.2L238.5,298.8z"/>
	</g>
	<g>
		<rect x="1020.3" y="252.1" class="st1" width="86.2" height="55.4"/>
		<path class="st3" d="M1031.9,306.1l-4.5-6.5l-1.4,1.6v5h-4.4v-16.4h4.4v6.6l5.9-6.6h5.1l-6.3,7l6.6,9.4H1031.9z"/>
		<path class="st3" d="M1048.8,298.8v-9.1h4.1v16.4h-3.5l-7.1-9.7v9.7h-4.1v-16.4h4.2L1048.8,298.8z"/>
		<path class="st3" d="M1059.8,289.7v16.4h-4.4v-16.4H1059.8z"/>
		<path class="st3" d="M1062.3,306.1v-16.4h12.4v3.6h-8v3.1h6v3.6h-6v6H1062.3z"/>
		<path class="st3" d="M1089.4,306.1h-12.9v-16.4h12.7v3.6h-8.3v2.7h6.4v3.6h-6.4v2.8h8.6V306.1z"/>
	</g>
	<g>
		<rect x="1153.1" y="252.1" class="st1" width="94" height="55.4"/>
		<path class="st4" d="M1162.1,306.4c-4.8,0-8.5-3.5-8.5-8.5c0-5,3.7-8.5,8.5-8.5c4.8,0,8.5,3.5,8.5,8.5
			C1170.6,302.9,1166.9,306.4,1162.1,306.4z M1162.1,293.3c-2.4,0-4,1.8-4,4.6s1.5,4.6,4,4.6s4-1.8,4-4.6S1164.5,293.3,1162.1,293.3
			z"/>
		<path class="st4" d="M1176.6,306.1v-12.7h-5.6v-3.6h15.7v3.6h-5.7v12.7H1176.6z"/>
		<path class="st4" d="M1188.6,306.1v-16.4h4.4v6.3h6.5v-6.3h4.4v16.4h-4.4v-6.5h-6.5v6.5H1188.6z"/>
		<path class="st4" d="M1219.4,306.1h-12.9v-16.4h12.7v3.6h-8.3v2.7h6.4v3.6h-6.4v2.8h8.6V306.1z"/>
		<path class="st4" d="M1231.7,306.1c-0.3-0.4-0.5-1.5-0.7-3.1c-0.1-1.9-0.9-2.3-2.4-2.3h-2.9v5.4h-4.3v-16.4h8.3
			c4.2,0,6.3,2,6.3,5.2c0,2.4-1.5,4-3.5,4.2c1.7,0.3,2.7,1.3,2.9,3.2c0.2,2.4,0.3,3.2,0.9,3.8H1231.7z M1228.8,297.3
			c1.9,0,2.8-0.5,2.8-2c0-1.3-0.9-2-2.8-2h-3.1v4H1228.8z"/>
	</g>
	<g>
		<rect x="1268.6" y="252.1" class="st1" width="108.1" height="55.4"/>
		<path class="st5" d="M1280.2,306.1c-0.3-0.4-0.5-1.5-0.7-3.1c-0.1-1.9-0.9-2.3-2.4-2.3h-2.9v5.4h-4.3v-16.4h8.3
			c4.2,0,6.3,2,6.3,5.2c0,2.4-1.5,4-3.5,4.2c1.7,0.3,2.7,1.3,2.9,3.2c0.2,2.4,0.3,3.2,0.9,3.8H1280.2z M1277.4,297.3
			c1.9,0,2.8-0.5,2.8-2c0-1.3-0.9-2-2.8-2h-3.1v4H1277.4z"/>
		<path class="st5" d="M1299.3,306.1h-12.9v-16.4h12.7v3.6h-8.3v2.7h6.4v3.6h-6.4v2.8h8.6V306.1z"/>
		<path class="st5" d="M1305.7,306.1h-4.4v-16.4h7.2c4.3,0,6.8,2,6.8,5.6c0,3.6-2.5,5.6-6.8,5.6h-2.8V306.1z M1308.3,297.4
			c2,0,2.7-0.7,2.7-2.1s-0.8-2.1-2.7-2.1h-2.6v4.2H1308.3z"/>
		<path class="st5" d="M1321.1,289.7v12.7h8.1v3.6h-12.5v-16.4H1321.1z"/>
		<path class="st5" d="M1335.6,289.7v16.4h-4.4v-16.4H1335.6z"/>
		<path class="st5" d="M1345.7,289.4c5,0,7.7,3.2,8,7.3l-4.2,0.2c-0.3-1.8-1.2-3.5-3.8-3.5c-2.4,0-3.8,1.8-3.8,4.6s1.4,4.6,3.8,4.6
			c2.5,0,3.5-1.7,3.8-3.5l4.2,0.2c-0.3,4.1-3,7.3-8,7.3c-4.8,0-8.4-3.5-8.4-8.5C1337.3,292.9,1340.9,289.4,1345.7,289.4z"/>
		<path class="st5" d="M1364.9,289.7l6.5,16.4h-4.7l-1.2-3.2h-6.4l-1.2,3.2h-4.4l6.5-16.4H1364.9z M1360.4,299.6h3.8l-1.9-4.8h-0.1
			L1360.4,299.6z"/>
	</g>
	<g>
		<rect x="1388.4" y="252.1" class="st1" width="134" height="55.4"/>
		<path class="st6" d="M1389.6,299.6v-9.9h4.4v9.2c0,2.5,0.8,3.8,3,3.8c2.3,0,3-1.3,3-3.8v-9.2h4.4v9.9c0,4.8-3.2,6.8-7.5,6.8
			C1392.8,306.4,1389.6,304.4,1389.6,299.6z"/>
		<path class="st6" d="M1417.5,298.8v-9.1h4.1v16.4h-3.5l-7.1-9.7v9.7h-4.1v-16.4h4.2L1417.5,298.8z"/>
		<path class="st6" d="M1434.4,306.1l-4.5-6.5l-1.4,1.6v5h-4.4v-16.4h4.4v6.6l5.9-6.6h5.1l-6.3,7l6.6,9.4H1434.4z"/>
		<path class="st6" d="M1451.3,298.8v-9.1h4.1v16.4h-3.5l-7.1-9.7v9.7h-4.1v-16.4h4.2L1451.3,298.8z"/>
		<path class="st6" d="M1465.6,306.4c-4.8,0-8.5-3.5-8.5-8.5c0-5,3.7-8.5,8.5-8.5c4.8,0,8.5,3.5,8.5,8.5
			C1474.1,302.9,1470.4,306.4,1465.6,306.4z M1465.6,293.3c-2.4,0-4,1.8-4,4.6s1.5,4.6,4,4.6s4-1.8,4-4.6S1468,293.3,1465.6,293.3z"
			/>
		<path class="st6" d="M1490.9,300h0.1l2.6-10.3h4.3l-4.3,16.4h-4.7l-2.7-10.3h-0.1l-2.7,10.3h-4.6l-4.3-16.4h4.4l2.6,10.3h0.1
			l2.7-10.3h4L1490.9,300z"/>
		<path class="st6" d="M1509.7,298.8v-9.1h4.1v16.4h-3.5l-7.1-9.7v9.7h-4.1v-16.4h4.2L1509.7,298.8z"/>
	</g>
	<g>
		<rect x="1603.5" y="252.1" class="st1" width="134" height="55.4"/>
		<path class="st7" d="M1604.7,299.6v-9.9h4.4v9.2c0,2.5,0.8,3.8,3,3.8c2.3,0,3-1.3,3-3.8v-9.2h4.4v9.9c0,4.8-3.3,6.8-7.5,6.8
			S1604.7,304.4,1604.7,299.6z"/>
		<path class="st7" d="M1632.5,298.8v-9.1h4.1v16.4h-3.5l-7.1-9.7v9.7h-4.1v-16.4h4.2L1632.5,298.8z"/>
		<path class="st7" d="M1649.3,289.7l6.5,16.4h-4.7l-1.2-3.2h-6.4l-1.2,3.2h-4.4l6.5-16.4H1649.3z M1644.8,299.6h3.8l-1.9-4.8h-0.1
			L1644.8,299.6z"/>
		<path class="st7" d="M1667.5,306.1c-0.3-0.4-0.5-1.5-0.7-3.1c-0.1-1.9-0.9-2.3-2.4-2.3h-2.9v5.4h-4.3v-16.4h8.3
			c4.2,0,6.3,2,6.3,5.2c0,2.4-1.5,4-3.5,4.2c1.7,0.3,2.7,1.3,2.9,3.2c0.2,2.4,0.3,3.2,0.9,3.8H1667.5z M1664.6,297.3
			c1.9,0,2.8-0.5,2.8-2c0-1.3-0.9-2-2.8-2h-3.1v4H1664.6z"/>
		<path class="st7" d="M1680.7,306.1l-2.9-11.5h-0.1v11.5h-4.1v-16.4h6.8l2.4,10.3h0.1l2.3-10.3h6.7v16.4h-4.4v-11.5h-0.1l-2.9,11.5
			H1680.7z"/>
		<path class="st7" d="M1707.4,306.1h-12.9v-16.4h12.7v3.6h-8.3v2.7h6.4v3.6h-6.4v2.8h8.6V306.1z"/>
		<path class="st7" d="M1709.3,289.7h6.5c5.4,0,8.8,3.1,8.8,8.2s-3.4,8.2-8.8,8.2h-6.5V289.7z M1715.5,302.6c2.9,0,4.6-1.7,4.6-4.7
			c0-3-1.7-4.7-4.6-4.7h-1.7v9.4H1715.5z"/>
	</g>
	<rect x="191.3" y="706.7" class="st8" width="749.6" height="164.4"/>
	<rect x="191.3" y="514.4" class="st8" width="814.9" height="164.4"/>
	<rect x="191.3" y="332.9" class="st8" width="881.8" height="164.4"/>
	<g>
		<g>
			<path class="st9" d="M247.6,800.7h0.3l3.2-29h4.5l-4.6,35.3h-5.8l-5-23.5H240l-5.2,23.5H229l-4.5-35.3h4.8l3.2,28.9h0.3l5.2-23.4
				h4.3L247.6,800.7z"/>
			<path class="st9" d="M261.4,807v-35.3h4.9v14.9h16.5v-14.9h4.9V807h-4.9v-16.2h-16.5V807H261.4z"/>
			<path class="st9" d="M296.5,807v-4.2h10v-26.9h-10v-4.2h24.8v4.2h-9.9v26.9h9.9v4.2H296.5z"/>
			<path class="st9" d="M340.8,807v-31h-12.5v-4.3h30v4.3h-12.7v31H340.8z"/>
			<path class="st9" d="M390.2,807h-23.4v-35.3h22.8v4.1h-18v10.8h12.8v4.2h-12.8v12h18.5V807z"/>
		</g>
	</g>
	<g>
		<g>
			<path class="st9" d="M234.6,582.4v31h18.2v4.3h-23.1v-35.3H234.6z"/>
			<path class="st9" d="M280.8,607.4h-12.9l-3.3,10.3h-4.8l11.8-35.3h5.9l11.8,35.3h-5.1L280.8,607.4z M269.2,603.4h10.4l-5.1-15.7
				h-0.2L269.2,603.4z"/>
			<path class="st9" d="M306.4,617.7v-31h-12.5v-4.3h30v4.3h-12.7v31H306.4z"/>
			<path class="st9" d="M330.8,617.7v-4.2h10v-26.9h-10v-4.2h24.8v4.2h-9.9v26.9h9.9v4.2H330.8z"/>
			<path class="st9" d="M386.3,609.7v-27.3h4.5v35.3h-4.3L369,588.5v29.1h-4.5v-35.3h5.7L386.3,609.7z"/>
			<path class="st9" d="M412,618.3c-8.5,0-14.7-7.4-14.7-18.3c0-10.9,6.2-18.3,14.7-18.3c8.5,0,14.7,7.4,14.7,18.3
				C426.7,610.9,420.6,618.3,412,618.3z M412,586c-5.8,0-9.6,5.4-9.6,14.1s3.8,14.1,9.6,14.1c5.8,0,9.6-5.4,9.6-14.1
				S417.9,586,412,586z"/>
		</g>
	</g>
	<g>
		<g>
			<path class="st9" d="M253.5,426.1c0,6.1-4.4,9.7-12.7,9.7h-13.1v-35.3h12.5c8.7,0,12.3,3.8,12.3,9.4c0,4.1-3.5,6.9-7.6,7.6
				C249.5,418.1,253.5,421,253.5,426.1z M232.5,415.7h8c5,0,7.2-2.1,7.2-5.5s-2.2-5.7-7.2-5.7h-8V415.7z M232.5,419.5v12.2h8.2
				c5.3,0,8-2.2,8-6c0-3.9-2.7-6.2-8-6.2H232.5z"/>
			<path class="st9" d="M269,400.5v31h18.2v4.3H264v-35.3H269z"/>
			<path class="st9" d="M315.2,425.5h-12.9l-3.3,10.3h-4.8l11.8-35.3h5.9l11.8,35.3h-5.1L315.2,425.5z M303.6,421.5h10.4l-5.1-15.7
				h-0.2L303.6,421.5z"/>
			<path class="st9" d="M357.4,425.7c-1.7,6.5-6.3,10.7-13.3,10.7c-8.4,0-15-7.4-15-18.3c0-10.9,6.6-18.3,15.1-18.3
				c6.3,0,10.8,3.6,12.7,9.3l-4.4,2.7c-1.2-4.6-4-7.8-8.5-7.8c-5.5,0-9.9,5.4-9.9,14.1c0,8.7,4.5,14.1,9.8,14.1c5,0,7.8-3.2,8.8-8.8
				L357.4,425.7z"/>
			<path class="st9" d="M388,435.8l-12.5-17.5l-5.5,6.3v11.2H365v-35.3h4.9V419l16.5-18.5h5.8l-13.3,14.4l15,20.8H388z"/>
		</g>
	</g>
</g>
<g id="key">
</g>
</svg>
