<?xml version="1.0" encoding="utf-8"?>
<!-- Generator: Adobe Illustrator 17.1.0, SVG Export Plug-In . SVG Version: 6.00 Build 0)  -->
<!DOCTYPE svg PUBLIC "-//W3C//DTD SVG 1.1//EN" "http://www.w3.org/Graphics/SVG/1.1/DTD/svg11.dtd">
<svg version="1.1" xmlns="http://www.w3.org/2000/svg" xmlns:xlink="http://www.w3.org/1999/xlink" x="0px" y="0px"
	 viewBox="0 54 1920 1026" style="enable-background:new 0 54 1920 1026;" xml:space="preserve">
<style type="text/css">
	.st0{display:none;}
	.st1{fill:none;}
	.st2{fill:none;stroke:#000000;stroke-width:2;}
	.st3{fill:#050145;}
	.st4{fill:#FFFFFF;}
</style>
<g id="Guides" class="st0">
</g>
<g id="Title">
	<g>
		<rect x="192" y="115.5" class="st1" width="1300" height="56.5"/>
		<path d="M237.1,143.5h0.3l7.1-28h11.6l-11.7,44.7h-12.9l-7.5-28.3h-0.3l-7.5,28.3h-12.6L192,115.5h12.1l7.1,28h0.3l7.4-28h10.9
			L237.1,143.5z"/>
		<path d="M270.7,160.2h-11.5v-44.7h11.5v17.8c1.7-3.5,5.5-5.6,10.2-5.6c8.7,0,11.4,6,11.4,12.6v19.9h-11.5v-16.8
			c0-4.3-1.2-6.6-4.7-6.6c-3.9,0-5.5,3.1-5.5,7.9V160.2z"/>
		<path d="M313.9,161.1c-10.4,0-17.3-6.8-17.3-16.7c0-9.8,7-16.7,17.3-16.7c10.3,0,17.3,6.9,17.3,16.7
			C331.2,154.3,324.2,161.1,313.9,161.1z M313.9,152.4c4,0,5.8-3.3,5.8-8c0-4.8-1.8-8-5.8-8c-4,0-5.8,3.3-5.8,8
			C308.2,149.2,309.9,152.4,313.9,152.4z"/>
		<path d="M364.2,127.7c9.5,0,14.8,6.2,15.6,13.8l-9.4,0.6c-0.8-3.9-2.7-5.8-6-5.8c-3.5,0-5.9,2.3-5.9,8c0,5.7,2.4,8,5.9,8
			c3.3,0,5.3-1.9,6-5.8l9.4,0.7c-0.8,7.7-6.1,13.8-15.6,13.8c-10,0-17.3-6.6-17.3-16.7C346.8,134.4,354.2,127.7,364.2,127.7z"/>
		<path d="M400.2,161.1c-10.4,0-17.3-6.8-17.3-16.7c0-9.8,7-16.7,17.3-16.7c10.3,0,17.3,6.9,17.3,16.7
			C417.5,154.3,410.5,161.1,400.2,161.1z M400.2,152.4c4,0,5.8-3.3,5.8-8c0-4.8-1.8-8-5.8-8c-4,0-5.8,3.3-5.8,8
			C394.4,149.2,396.1,152.4,400.2,152.4z"/>
		<path d="M433.5,171.6H422v-43h11.5v5.5c1.6-3.8,5.1-6.3,10.4-6.3c9.3,0,14.1,7.4,14.1,16.7c0,9.4-4.8,16.7-14.1,16.7
			c-5.3,0-8.9-2.6-10.4-6.2V171.6z M433.5,144.6c0,4.6,2.5,7.6,6.4,7.6c4.5,0,6.5-3.2,6.5-7.8c0-4.5-2.1-7.7-6.5-7.7
			c-3.9,0-6.4,3-6.4,7.5V144.6z"/>
		<path d="M470.3,149.8c0.4,2.6,2.6,4.1,6,4.1c2.6,0,3.9-0.9,3.9-2.2c0-1.2-0.7-2.1-2.9-2.4l-4.7-0.7c-7.7-1.2-11.7-3.7-11.7-10.2
			c0-6.2,5.5-10.7,14.3-10.7c9.2,0,14.6,4,15.2,10.6l-9.4,0.3c-0.4-2.3-2.4-3.7-6-3.7c-2.2,0-3.5,0.9-3.5,2.3c0,1.1,0.9,1.6,1.9,1.8
			l6.2,1.1c7.1,1.1,11.2,4.3,11.2,10.5c0,6.7-5.7,10.5-14.7,10.5c-8.7,0-15.3-3.5-15.9-11.1L470.3,149.8z"/>
		<path d="M515.8,149.8c0.4,2.6,2.6,4.1,6,4.1c2.6,0,3.9-0.9,3.9-2.2c0-1.2-0.7-2.1-2.9-2.4l-4.7-0.7c-7.7-1.2-11.7-3.7-11.7-10.2
			c0-6.2,5.5-10.7,14.3-10.7c9.2,0,14.6,4,15.2,10.6l-9.4,0.3c-0.4-2.3-2.4-3.7-6-3.7c-2.2,0-3.5,0.9-3.5,2.3c0,1.1,0.9,1.6,1.9,1.8
			l6.2,1.1c7.1,1.1,11.2,4.3,11.2,10.5c0,6.7-5.7,10.5-14.7,10.5c-8.7,0-15.3-3.5-15.9-11.1L515.8,149.8z"/>
		<path d="M552.3,160.2h-11.5v-44.7h11.5v17.8c1.7-3.5,5.5-5.6,10.2-5.6c8.7,0,11.4,6,11.4,12.6v19.9h-11.5v-16.8
			c0-4.3-1.2-6.6-4.7-6.6c-3.9,0-5.5,3.1-5.5,7.9V160.2z"/>
		<path d="M595.5,161.1c-10.4,0-17.3-6.8-17.3-16.7c0-9.8,7-16.7,17.3-16.7c10.3,0,17.3,6.9,17.3,16.7
			C612.8,154.3,605.8,161.1,595.5,161.1z M595.5,152.4c4,0,5.8-3.3,5.8-8c0-4.8-1.8-8-5.8-8c-4,0-5.8,3.3-5.8,8
			C589.7,149.2,591.4,152.4,595.5,152.4z"/>
		<path d="M633.2,161.1c-10.4,0-17.3-6.8-17.3-16.7c0-9.8,7-16.7,17.3-16.7c10.3,0,17.3,6.9,17.3,16.7
			C650.5,154.3,643.5,161.1,633.2,161.1z M633.2,152.4c4,0,5.8-3.3,5.8-8c0-4.8-1.8-8-5.8-8c-4,0-5.8,3.3-5.8,8
			C627.4,149.2,629.1,152.4,633.2,152.4z"/>
		<path d="M656.2,136.5h-4.3v-7.1l2.3-0.4c3.2-0.5,4.2-2.2,5-5.1l1.1-4.1h7.2v8.7h8.2v8h-8.2v11.6c0,2.7,1.3,3.8,3.6,3.8
			c1.4,0,3-0.3,4.9-1.1v7.5c-2.4,1.8-5.2,2.8-9.5,2.8c-5.3,0-10.4-2.2-10.4-9.7V136.5z"/>
	</g>
	<g>
		<g>
			<path d="M207.1,209.9h-8.3l-2.1,6.6h-3.1l7.6-22.7h3.8l7.6,22.7h-3.3L207.1,209.9z M199.6,207.3h6.7l-3.3-10.1h-0.1L199.6,207.3z
				"/>
			<path d="M230.7,211.4v-17.6h2.9v22.7h-2.8l-11.2-18.7v18.7h-2.9v-22.7h3.7L230.7,211.4z"/>
			<path d="M252.8,211.4v-17.6h2.9v22.7h-2.8l-11.2-18.7v18.7h-2.9v-22.7h3.7L252.8,211.4z"/>
			<path d="M260.9,207.4v-13.6h3.1v13.4c0,4.6,1.8,7,5.4,7c3.5,0,5.4-2.4,5.4-7v-13.4h3.1v13.6c0,6.6-3.9,9.5-8.5,9.5
				C264.8,216.9,260.9,214,260.9,207.4z"/>
			<path d="M295.5,209.9h-8.3l-2.1,6.6H282l7.6-22.7h3.8l7.6,22.7h-3.3L295.5,209.9z M288,207.3h6.7l-3.3-10.1h-0.1L288,207.3z"/>
			<path d="M310,193.8v19.9h11.7v2.7h-14.9v-22.7H310z"/>
			<path d="M363.9,216.5c-0.9-0.4-1.3-2.3-1.5-4.6c-0.3-3.5-1.4-5.4-4.6-5.4h-5.4v9.9h-3.1v-22.7h8.6c5.7,0,8.4,2.5,8.4,6.3
				c0,2.8-2.6,5-5.5,5.2c2.6,0.4,4,2.5,4.4,5.2c0.6,3.8,1.3,5,2.5,5.8v0.3H363.9z M352.5,204h5c3.9,0,5.7-1.2,5.7-3.8
				c0-2.4-1.6-3.8-5.4-3.8h-5.3V204z"/>
			<path d="M383.9,209.9h-8.3l-2.1,6.6h-3.1l7.6-22.7h3.8l7.6,22.7h-3.3L383.9,209.9z M376.5,207.3h6.7l-3.3-10.1h-0.1L376.5,207.3z
				"/>
			<path d="M400.4,216.5v-19.9h-8v-2.7h19.3v2.7h-8.1v19.9H400.4z"/>
			<path d="M432.2,216.5h-15v-22.7h14.7v2.7h-11.6v6.9h8.2v2.7h-8.2v7.7h11.9V216.5z"/>
			<path d="M468.3,216.9c-5.5,0-9.4-4.8-9.4-11.8c0-7,4-11.8,9.4-11.8c5.5,0,9.4,4.8,9.4,11.8C477.7,212.1,473.8,216.9,468.3,216.9z
				 M468.3,196.1c-3.7,0-6.2,3.5-6.2,9c0,5.5,2.4,9,6.2,9c3.7,0,6.2-3.5,6.2-9C474.5,199.6,472,196.1,468.3,196.1z"/>
			<path d="M483.5,216.5v-22.7h15.2v2.7h-12.1v7.1h9.1v2.7h-9.1v10.3H483.5z"/>
			<path d="M530.2,207.4v9.1h-3.1v-22.7h7.8c5.6,0,8.8,2.6,8.8,6.8s-3.2,6.8-8.8,6.8H530.2z M534.8,204.8c3.9,0,5.8-1.4,5.8-4.2
				s-1.9-4.2-5.8-4.2h-4.6v8.4H534.8z"/>
			<path d="M556.7,216.9c-5.5,0-9.4-4.8-9.4-11.8c0-7,4-11.8,9.4-11.8c5.5,0,9.4,4.8,9.4,11.8C566.1,212.1,562.2,216.9,556.7,216.9z
				 M556.7,196.1c-3.7,0-6.2,3.5-6.2,9c0,5.5,2.4,9,6.2,9c3.7,0,6.2-3.5,6.2-9C562.9,199.6,560.5,196.1,556.7,196.1z"/>
			<path d="M575.3,193.8v19.9H587v2.7h-14.9v-22.7H575.3z"/>
			<path d="M592.9,216.5v-2.7h6.4v-17.3h-6.4v-2.7h15.9v2.7h-6.4v17.3h6.4v2.7H592.9z"/>
			<path d="M632.1,210c-1.1,4.2-4,6.9-8.6,6.9c-5.4,0-9.6-4.8-9.6-11.8c0-7,4.2-11.8,9.7-11.8c4.1,0,6.9,2.3,8.2,6l-2.8,1.7
				c-0.8-3-2.6-5-5.4-5c-3.5,0-6.4,3.5-6.4,9.1c0,5.6,2.9,9.1,6.3,9.1c3.2,0,5-2.1,5.7-5.7L632.1,210z"/>
			<path d="M653.2,216.5h-15v-22.7h14.7v2.7h-11.6v6.9h8.2v2.7h-8.2v7.7h11.9V216.5z"/>
			<path d="M682.1,209.4c1.4,3.3,4.4,5,7.5,5c3.1,0,5.4-1.3,5.4-3.9c0-2.1-1.4-2.9-3.8-3.5l-4.5-1.1c-3-0.7-5.4-2.4-5.4-5.9
				c0-3.9,3.1-6.6,7.6-6.6c4.1,0,6.9,1.9,8.4,4.5l-2,2.2c-1-2.4-3.3-4.1-6.3-4.1c-2.8,0-4.6,1.4-4.6,3.8c0,2.1,1.5,2.8,3.9,3.4
				l4,0.9c3.3,0.8,5.9,2.3,5.9,6.2c0,4.1-3.6,6.6-8.3,6.6c-4.1,0-7.9-1.9-9.4-5.2L682.1,209.4z"/>
			<path d="M703,216.5v-22.7h3.2v9.6h10.6v-9.6h3.2v22.7h-3.2v-10.4h-10.6v10.4H703z"/>
			<path d="M733.5,216.9c-5.5,0-9.4-4.8-9.4-11.8c0-7,4-11.8,9.4-11.8c5.5,0,9.4,4.8,9.4,11.8C743,212.1,739,216.9,733.5,216.9z
				 M733.5,196.1c-3.7,0-6.2,3.5-6.2,9c0,5.5,2.4,9,6.2,9c3.7,0,6.2-3.5,6.2-9C739.7,199.6,737.3,196.1,733.5,196.1z"/>
			<path d="M755.7,216.9c-5.5,0-9.4-4.8-9.4-11.8c0-7,4-11.8,9.4-11.8c5.5,0,9.4,4.8,9.4,11.8C765.1,212.1,761.1,216.9,755.7,216.9z
				 M755.7,196.1c-3.7,0-6.2,3.5-6.2,9c0,5.5,2.4,9,6.2,9c3.7,0,6.2-3.5,6.2-9C761.8,199.6,759.4,196.1,755.7,196.1z"/>
			<path d="M776.1,216.5v-19.9h-8v-2.7h19.3v2.7h-8.1v19.9H776.1z"/>
			<path d="M791.9,216.5v-2.7h6.4v-17.3h-6.4v-2.7h15.9v2.7h-6.4v17.3h6.4v2.7H791.9z"/>
			<path d="M827.5,211.4v-17.6h2.9v22.7h-2.8l-11.2-18.7v18.7h-2.9v-22.7h3.7L827.5,211.4z"/>
			<path d="M834.8,205.1c0-7,4.2-11.8,9.6-11.8c4,0,6.7,2.2,8,5.9l-2.8,1.8c-0.7-3-2.4-4.9-5.3-4.9c-3.5,0-6.3,3.5-6.3,9.1
				c0,5.6,2.7,9.1,6.1,9.1c3.5,0,5.4-2.7,5.7-6.6h-6.1v-2.4h8.8v11.2h-2.1l-0.4-4.1c-0.8,2.8-3.1,4.5-6.1,4.5
				C838.8,216.9,834.8,212.1,834.8,205.1z"/>
			<path d="M858.9,209.4c1.4,3.3,4.4,5,7.5,5c3.1,0,5.4-1.3,5.4-3.9c0-2.1-1.4-2.9-3.8-3.5l-4.5-1.1c-3-0.7-5.4-2.4-5.4-5.9
				c0-3.9,3.1-6.6,7.6-6.6c4.1,0,6.9,1.9,8.4,4.5l-2,2.2c-1-2.4-3.3-4.1-6.3-4.1c-2.8,0-4.6,1.4-4.6,3.8c0,2.1,1.5,2.8,3.9,3.4
				l4,0.9c3.3,0.8,5.9,2.3,5.9,6.2c0,4.1-3.6,6.6-8.3,6.6c-4.1,0-7.9-1.9-9.4-5.2L858.9,209.4z"/>
			<path d="M906,207.4v9.1h-3.1v-22.7h7.8c5.6,0,8.8,2.6,8.8,6.8s-3.2,6.8-8.8,6.8H906z M910.6,204.8c3.9,0,5.8-1.4,5.8-4.2
				s-1.9-4.2-5.8-4.2H906v8.4H910.6z"/>
			<path d="M940.5,216.5h-15v-22.7h14.7v2.7h-11.6v6.9h8.2v2.7h-8.2v7.7h11.9V216.5z"/>
			<path d="M960.7,216.5c-0.9-0.4-1.3-2.3-1.5-4.6c-0.3-3.5-1.4-5.4-4.6-5.4h-5.4v9.9h-3.1v-22.7h8.6c5.7,0,8.4,2.5,8.4,6.3
				c0,2.8-2.6,5-5.5,5.2c2.6,0.4,4,2.5,4.4,5.2c0.6,3.8,1.3,5,2.5,5.8v0.3H960.7z M949.3,204h5c3.9,0,5.7-1.2,5.7-3.8
				c0-2.4-1.6-3.8-5.4-3.8h-5.3V204z"/>
			<path d="M990.8,216.5v-2.6h7.2v-14.5h-6.3V197h1.9c3.8,0,4.9-0.7,5.5-3.4h2v20.2h6.7v2.6H990.8z"/>
			<path d="M1020.9,216.9c-5.5,0-9.1-4.2-9.1-11.8c0-7.5,3.6-11.8,9.1-11.8c5.5,0,9.1,4.2,9.1,11.8
				C1030,212.7,1026.4,216.9,1020.9,216.9z M1020.9,195.9c-3.7,0-5.9,3.1-5.9,9.3c0,6.2,2.2,9.3,5.9,9.3c3.7,0,5.9-3.1,5.9-9.3
				C1026.8,199,1024.6,195.9,1020.9,195.9z"/>
			<path d="M1043,216.9c-5.5,0-9.1-4.2-9.1-11.8c0-7.5,3.6-11.8,9.1-11.8c5.5,0,9.1,4.2,9.1,11.8
				C1052.1,212.7,1048.5,216.9,1043,216.9z M1043,195.9c-3.7,0-5.9,3.1-5.9,9.3c0,6.2,2.2,9.3,5.9,9.3c3.7,0,5.9-3.1,5.9-9.3
				C1048.9,199,1046.7,195.9,1043,195.9z"/>
			<path d="M1062.8,212h4.6v5.1c0,3.2-2.3,4.9-5.9,4.9v-2.2c2,0,3.5-0.5,3.5-2.7v-0.8h-2.2V212z"/>
			<path d="M1087.2,216.9c-5.5,0-9.1-4.2-9.1-11.8c0-7.5,3.6-11.8,9.1-11.8c5.5,0,9.1,4.2,9.1,11.8
				C1096.3,212.7,1092.7,216.9,1087.2,216.9z M1087.2,195.9c-3.7,0-5.9,3.1-5.9,9.3c0,6.2,2.2,9.3,5.9,9.3c3.7,0,5.9-3.1,5.9-9.3
				C1093.1,199,1090.9,195.9,1087.2,195.9z"/>
			<path d="M1109.3,216.9c-5.5,0-9.1-4.2-9.1-11.8c0-7.5,3.6-11.8,9.1-11.8c5.5,0,9.1,4.2,9.1,11.8
				C1118.5,212.7,1114.8,216.9,1109.3,216.9z M1109.3,195.9c-3.7,0-5.9,3.1-5.9,9.3c0,6.2,2.2,9.3,5.9,9.3c3.7,0,5.9-3.1,5.9-9.3
				C1115.2,199,1113.1,195.9,1109.3,195.9z"/>
			<path d="M1131.4,216.9c-5.5,0-9.1-4.2-9.1-11.8c0-7.5,3.6-11.8,9.1-11.8c5.5,0,9.1,4.2,9.1,11.8
				C1140.6,212.7,1136.9,216.9,1131.4,216.9z M1131.4,195.9c-3.7,0-5.9,3.1-5.9,9.3c0,6.2,2.2,9.3,5.9,9.3c3.7,0,5.9-3.1,5.9-9.3
				C1137.3,199,1135.2,195.9,1131.4,195.9z"/>
			<path d="M1171.2,207.4v9.1h-3.1v-22.7h7.8c5.6,0,8.8,2.6,8.8,6.8s-3.2,6.8-8.8,6.8H1171.2z M1175.8,204.8c3.9,0,5.8-1.4,5.8-4.2
				s-1.9-4.2-5.8-4.2h-4.6v8.4H1175.8z"/>
			<path d="M1205.8,216.5h-15v-22.7h14.7v2.7h-11.6v6.9h8.2v2.7h-8.2v7.7h11.9V216.5z"/>
			<path d="M1219.8,216.9c-5.5,0-9.4-4.8-9.4-11.8c0-7,4-11.8,9.4-11.8c5.5,0,9.4,4.8,9.4,11.8
				C1229.3,212.1,1225.3,216.9,1219.8,216.9z M1219.8,196.1c-3.7,0-6.2,3.5-6.2,9c0,5.5,2.4,9,6.2,9c3.7,0,6.2-3.5,6.2-9
				C1226,199.6,1223.6,196.1,1219.8,196.1z"/>
			<path d="M1237.5,207.4v9.1h-3.1v-22.7h7.8c5.6,0,8.8,2.6,8.8,6.8s-3.2,6.8-8.8,6.8H1237.5z M1242.1,204.8c3.9,0,5.8-1.4,5.8-4.2
				s-1.9-4.2-5.8-4.2h-4.6v8.4H1242.1z"/>
			<path d="M1260.5,193.8v19.9h11.7v2.7h-14.9v-22.7H1260.5z"/>
			<path d="M1294.2,216.5h-15v-22.7h14.7v2.7h-11.6v6.9h8.2v2.7h-8.2v7.7h11.9V216.5z"/>
			<path d="M1338.9,210.3c0,3.9-2.8,6.2-8.1,6.2h-8.4v-22.7h8c5.6,0,7.9,2.4,7.9,6c0,2.6-2.2,4.5-4.9,4.9
				C1336.4,205.1,1338.9,207,1338.9,210.3z M1325.4,203.6h5.1c3.2,0,4.6-1.4,4.6-3.6c0-2.2-1.4-3.6-4.6-3.6h-5.1V203.6z M1325.4,206
				v7.8h5.3c3.4,0,5.1-1.4,5.1-3.9c0-2.5-1.8-4-5.1-4H1325.4z"/>
			<path d="M1359,193.8h3.3L1354,207v9.5h-3V207l-8.4-13.2h3.6l6.4,10.3L1359,193.8z"/>
			<path d="M1402.8,216.5c-0.9-0.4-1.3-2.3-1.5-4.6c-0.3-3.5-1.4-5.4-4.6-5.4h-5.4v9.9h-3.1v-22.7h8.6c5.7,0,8.4,2.5,8.4,6.3
				c0,2.8-2.6,5-5.5,5.2c2.6,0.4,4,2.5,4.4,5.2c0.6,3.8,1.3,5,2.5,5.8v0.3H1402.8z M1391.4,204h5c3.9,0,5.7-1.2,5.7-3.8
				c0-2.4-1.6-3.8-5.4-3.8h-5.3V204z"/>
			<path d="M1422.8,209.9h-8.3l-2.1,6.6h-3.1l7.6-22.7h3.8l7.6,22.7h-3.3L1422.8,209.9z M1415.3,207.3h6.7l-3.3-10.1h-0.1
				L1415.3,207.3z"/>
			<path d="M1449.9,210c-1.1,4.2-4,6.9-8.6,6.9c-5.4,0-9.6-4.8-9.6-11.8c0-7,4.2-11.8,9.7-11.8c4.1,0,6.9,2.3,8.2,6l-2.8,1.7
				c-0.8-3-2.6-5-5.4-5c-3.5,0-6.4,3.5-6.4,9.1c0,5.6,2.9,9.1,6.3,9.1c3.2,0,5-2.1,5.7-5.7L1449.9,210z"/>
			<path d="M1471,216.5h-15v-22.7h14.7v2.7h-11.6v6.9h8.2v2.7h-8.2v7.7h11.9V216.5z"/>
			<path d="M1482.8,212h4.6v5.1c0,3.2-2.3,4.9-5.9,4.9v-2.2c2,0,3.5-0.5,3.5-2.7v-0.8h-2.2V212z"/>
			<path d="M1537.5,213.8v2.7h-16.7v-1.8l6.4-5.5c3.6-3.1,6.3-5.4,6.3-8.7c0-2.7-1.6-4.5-4.6-4.5c-3.1,0-4.8,1.9-4.8,5.2
				c0,0.7,0.1,1.4,0.4,2.1l-3.1-0.1c-0.2-0.7-0.3-1.4-0.3-2.1c0-4.6,3.1-7.6,8-7.6c5.3,0,7.8,3.1,7.8,6.9c0,4.1-3.7,7.3-6.8,9.9
				l-4.2,3.5H1537.5z"/>
			<path d="M1551.4,216.9c-5.5,0-9.1-4.2-9.1-11.8c0-7.5,3.6-11.8,9.1-11.8c5.5,0,9.1,4.2,9.1,11.8
				C1560.5,212.7,1556.9,216.9,1551.4,216.9z M1551.4,195.9c-3.7,0-5.9,3.1-5.9,9.3c0,6.2,2.2,9.3,5.9,9.3c3.7,0,5.9-3.1,5.9-9.3
				C1557.3,199,1555.1,195.9,1551.4,195.9z"/>
			<path d="M1565.5,216.5v-2.6h7.2v-14.5h-6.3V197h1.9c3.8,0,4.9-0.7,5.5-3.4h2v20.2h6.7v2.6H1565.5z"/>
			<path d="M1595.6,216.9c-5.5,0-9.1-4.2-9.1-11.8c0-7.5,3.6-11.8,9.1-11.8c5.5,0,9.1,4.2,9.1,11.8
				C1604.7,212.7,1601.1,216.9,1595.6,216.9z M1595.6,195.9c-3.7,0-5.9,3.1-5.9,9.3c0,6.2,2.2,9.3,5.9,9.3c3.7,0,5.9-3.1,5.9-9.3
				C1601.5,199,1599.3,195.9,1595.6,195.9z"/>
			<path d="M1613.3,203.9h8.9v2.8h-8.9V203.9z"/>
			<path d="M1631.8,216.5v-2.6h7.2v-14.5h-6.3V197h1.9c3.8,0,4.9-0.7,5.5-3.4h2v20.2h6.7v2.6H1631.8z"/>
			<path d="M1667.8,199.8c-0.5-2.4-2.1-3.9-4.9-3.9c-4.7,0-6.8,4.8-6.7,10.6c0.7-2.7,3-4.8,6.7-4.8c4.5,0,7.7,3.1,7.7,7.5
				c0,4.6-3.3,7.7-8.2,7.7c-5.8,0-9-4.4-9-11.3c0-7.1,3.3-12.2,9.5-12.2c4,0,6.8,2.1,7.6,5.5L1667.8,199.8z M1662.5,214.4
				c3.1,0,5.2-2.1,5.2-5.1c0-3.1-2.1-5.1-5.3-5.1s-5.3,2-5.3,5.1C1657.1,212.3,1659.3,214.4,1662.5,214.4z"/>
		</g>
	</g>
</g>
<g id="Source">
	<g>
		<g>
			<path d="M194.8,1017.7c0.1,3.2,2.4,4.9,5.3,4.9c2.6,0,4.3-1.1,4.3-3.1c0-1.6-1.1-2.4-3.4-2.9l-3.5-0.7c-2.6-0.5-4.4-1.9-4.4-4.6
				c0-3.1,2.4-5.2,6.3-5.2c4.4,0,7,2.4,7,6.3l-2.2,0.1c-0.1-2.9-1.8-4.6-4.8-4.6c-2.5,0-4,1.2-4,3.2c0,1.7,1.1,2.3,3.2,2.7l3.2,0.6
				c3.2,0.6,4.8,2,4.8,4.8c0,3.2-2.8,5.1-6.6,5.1c-4.3,0-7.5-2.4-7.5-6.6L194.8,1017.7z"/>
			<path d="M214.8,1024.5c-3.6,0-6.2-2.6-6.2-6.4c0-3.8,2.6-6.5,6.2-6.5c3.6,0,6.3,2.7,6.3,6.5
				C221.1,1021.8,218.5,1024.5,214.8,1024.5z M214.8,1022.7c2.5,0,3.9-1.9,3.9-4.6c0-2.7-1.4-4.6-3.9-4.6c-2.5,0-3.8,1.9-3.8,4.6
				C211,1020.8,212.4,1022.7,214.8,1022.7z"/>
			<path d="M231.8,1011.9h2.3v12.2h-2.3v-2.2c-0.6,1.5-2.2,2.5-4,2.5c-3.2,0-4.4-2.1-4.4-5v-7.6h2.3v7.4c0,2,0.9,3.4,2.8,3.4
				c1.8,0,3.2-1.5,3.2-3.7V1011.9z"/>
			<path d="M244.6,1014.2c-0.7-0.4-1.1-0.5-1.9-0.5c-1.8,0-3.1,1.6-3.1,3.9v6.5h-2.3v-12.2h2.3v2.5c0.4-1.4,1.7-2.8,3.5-2.8
				c0.8,0,1.3,0.2,1.7,0.6L244.6,1014.2z"/>
			<path d="M251.7,1011.6c3.6,0,5.5,2.4,5.8,5.3l-2,0.1c-0.2-2.2-1.5-3.6-3.8-3.6c-2.3,0-3.9,1.8-3.9,4.6c0,2.8,1.6,4.6,3.9,4.6
				c2.3,0,3.6-1.5,3.8-3.7l2,0.2c-0.3,3-2.2,5.3-5.8,5.3c-3.7,0-6.3-2.5-6.3-6.4C245.4,1014.1,248,1011.6,251.7,1011.6z"/>
			<path d="M271.1,1020c-0.6,2.8-2.7,4.5-5.7,4.5c-3.6,0-6.3-2.5-6.3-6.3c0-3.9,2.7-6.6,6.2-6.6c3.9,0,5.9,2.8,5.9,6.1v0.9h-9.7
				c0.1,2.4,1.8,4.1,4,4.1c2,0,3.2-1,3.8-2.9L271.1,1020z M268.8,1017.1c-0.1-2-1.2-3.8-3.5-3.8c-2.2,0-3.5,1.7-3.8,3.8H268.8z"/>
			<path d="M273.1,1012.5h2.8v2.8h-2.8V1012.5z M273.1,1021.3h2.8v2.8h-2.8V1021.3z"/>
			<path d="M289.4,1024.1l-7.1-17.6h2.5l6,14.8h0.1l5.8-14.8h2.5l-7.1,17.6H289.4z"/>
			<path d="M303.6,1006.5v17.6h-2.4v-17.6H303.6z"/>
			<path d="M314.9,1006.2c5,0,7.9,3.1,8.2,7.6l-2.4,0.1c-0.2-3.2-2.2-5.7-5.9-5.7c-3.6,0-6.2,2.7-6.2,7.1s2.6,7.1,6.2,7.1
				c3.6,0,5.7-2.4,5.9-5.7l2.4,0.1c-0.3,4.5-3.2,7.6-8.2,7.6c-4.9,0-8.7-3.7-8.7-9.2C306.2,1009.9,310,1006.2,314.9,1006.2z"/>
			<path d="M338.2,1024.1h-12.6v-17.6H338v2h-10v5.5h7.9v2H328v6.1h10.2V1024.1z"/>
			<path d="M358.2,1020v-13.5h2.3v17.6h-1.9l-10.2-14.2v14.2h-2.3v-17.6h2.5L358.2,1020z"/>
			<path d="M375,1020c-0.6,2.8-2.7,4.5-5.7,4.5c-3.6,0-6.3-2.5-6.3-6.3c0-3.9,2.7-6.6,6.2-6.6c3.9,0,5.9,2.8,5.9,6.1v0.9h-9.7
				c0.1,2.4,1.8,4.1,4,4.1c2,0,3.2-1,3.8-2.9L375,1020z M372.7,1017.1c-0.1-2-1.2-3.8-3.5-3.8c-2.2,0-3.5,1.7-3.8,3.8H372.7z"/>
			<path d="M388.6,1021.2h0.1l2.8-9.3h2.2l-3.9,12.2h-2.2l-2.6-9.1h-0.1l-2.6,9.1H380l-3.9-12.2h2.3l2.9,9.3h0.1l2.6-9.3h2
				L388.6,1021.2z"/>
			<path d="M396.5,1019.9c0.2,1.9,1.5,2.9,3.6,2.9c1.6,0,2.8-0.6,2.8-1.8c0-1.1-0.8-1.5-2.3-1.8l-2.1-0.4c-2.3-0.4-3.7-1.3-3.7-3.4
				c0-2.2,1.9-3.8,4.7-3.8c3.2,0,5.2,1.5,5.4,4.3l-1.9,0.1c-0.3-1.9-1.4-2.7-3.5-2.7c-1.5,0-2.5,0.7-2.5,1.8c0,1,0.6,1.5,1.9,1.7
				l2.3,0.4c2.5,0.4,3.9,1.3,3.9,3.6c0,2.4-2.2,3.8-5,3.8c-3.1,0-5.4-1.4-5.6-4.5L396.5,1019.9z"/>
			<path d="M407,1012.5h2.8v2.8H407V1012.5z M407,1021.3h2.8v2.7c0,2-0.6,3.1-2.8,3.1v-1.4c1-0.1,1.3-0.5,1.3-1.7H407V1021.3z"/>
			<path d="M423,1024.5c-3.6,0-6.2-2.6-6.2-6.4c0-3.8,2.6-6.5,6.2-6.5c3.6,0,6.3,2.7,6.3,6.5C429.2,1021.8,426.6,1024.5,423,1024.5z
				 M423,1022.7c2.5,0,3.9-1.9,3.9-4.6c0-2.7-1.4-4.6-3.9-4.6c-2.5,0-3.8,1.9-3.8,4.6C419.1,1020.8,420.5,1022.7,423,1022.7z"/>
			<path d="M430.3,1013.6v-1.7h1.9v-1.4c0-2.6,1.5-4.3,4.1-4.3c2.1,0,3.3,1,3.8,2.8l-1.6,0.6c-0.3-1-1-1.7-2.1-1.7
				c-1.3,0-1.9,0.9-1.9,2.4v1.7h3.4v1.7h-3.4v10.6h-2.3v-10.6H430.3z"/>
			<path d="M456.8,1022v2.1h-13v-1.4l5-4.3c2.8-2.4,4.8-4.2,4.8-6.8c0-2.1-1.2-3.5-3.5-3.5c-2.4,0-3.8,1.5-3.8,4.1
				c0,0.5,0.1,1.1,0.2,1.6l-2.4-0.1c-0.1-0.6-0.2-1.1-0.2-1.7c0-3.6,2.4-5.9,6.2-5.9c4.1,0,6,2.4,6,5.4c0,3.2-2.7,5.6-5.3,7.7
				l-3.3,2.7H456.8z"/>
			<path d="M458.8,1021.3h2.8v2.7c0,2-0.6,3.1-2.8,3.1v-1.4c1-0.1,1.3-0.5,1.3-1.7h-1.3V1021.3z"/>
			<path d="M463.4,1019.5c0-2.3,1.7-3.9,3.6-4.2c-1.8-0.7-3-2.1-3-4.2c0-3.1,2.6-4.9,6-4.9c3.4,0,6,1.8,6,4.9c0,2.1-1.1,3.5-3,4.2
				c1.9,0.4,3.6,1.9,3.6,4.2c0,3.1-2.5,5-6.6,5C465.9,1024.5,463.4,1022.5,463.4,1019.5z M465.9,1019.3c0,2.1,1.5,3.3,4.2,3.3
				c2.7,0,4.1-1.2,4.1-3.3s-1.5-3.2-4.1-3.2C467.4,1016.2,465.9,1017.3,465.9,1019.3z M466.4,1011.2c0,2,1.5,3.1,3.7,3.1
				c2.2,0,3.7-1.1,3.7-3.1c0-2.2-1.5-3.3-3.7-3.3C467.9,1008,466.4,1009,466.4,1011.2z"/>
			<path d="M491.1,1022v2.1h-13v-1.4l5-4.3c2.8-2.4,4.8-4.2,4.8-6.8c0-2.1-1.2-3.5-3.5-3.5c-2.4,0-3.8,1.5-3.8,4.1
				c0,0.5,0.1,1.1,0.2,1.6l-2.4-0.1c-0.1-0.6-0.2-1.1-0.2-1.7c0-3.6,2.4-5.9,6.2-5.9c4.1,0,6,2.4,6,5.4c0,3.2-2.7,5.6-5.3,7.7
				l-3.3,2.7H491.1z"/>
			<path d="M503.1,1017.4h3v2h-3v4.7h-2.4v-4.7h-9.3v-2.3l8.7-10.6h2.9V1017.4z M493.6,1017.4h7.2v-8.8L493.6,1017.4z"/>
			<path d="M514.1,1019.9c0.2,1.9,1.5,2.9,3.6,2.9c1.6,0,2.8-0.6,2.8-1.8c0-1.1-0.8-1.5-2.3-1.8l-2.1-0.4c-2.3-0.4-3.7-1.3-3.7-3.4
				c0-2.2,1.9-3.8,4.7-3.8c3.2,0,5.2,1.5,5.4,4.3l-1.9,0.1c-0.3-1.9-1.4-2.7-3.5-2.7c-1.5,0-2.5,0.7-2.5,1.8c0,1,0.6,1.5,1.9,1.7
				l2.3,0.4c2.5,0.4,3.9,1.3,3.9,3.6c0,2.4-2.2,3.8-5,3.8c-3.1,0-5.4-1.4-5.6-4.5L514.1,1019.9z"/>
			<path d="M533.3,1011.9h2.3v12.2h-2.3v-2.2c-0.6,1.5-2.2,2.5-4,2.5c-3.2,0-4.4-2.1-4.4-5v-7.6h2.3v7.4c0,2,0.9,3.4,2.8,3.4
				c1.8,0,3.2-1.5,3.2-3.7V1011.9z"/>
			<path d="M540.6,1024.1h-1.8v-17.6h2.3v8c0.5-1.5,2.1-2.9,4.4-2.9c3.6,0,5.6,2.9,5.6,6.5c0,3.6-2,6.4-5.6,6.4
				c-2.3,0-3.9-1.3-4.4-2.9L540.6,1024.1z M541.1,1018.4c0,2.7,1.7,4.3,3.9,4.3c2.4,0,3.7-1.8,3.7-4.6c0-2.8-1.3-4.6-3.7-4.6
				c-2.2,0-3.9,1.6-3.9,4.2V1018.4z"/>
			<path d="M555.9,1025.8c0,2.2-1.1,3.4-3.3,3.4c-1,0-2.1-0.4-2.7-0.9l0.6-1.5c0.6,0.4,1.2,0.6,1.9,0.6c0.8,0,1.2-0.4,1.2-1.4v-14.1
				h2.3V1025.8z M553.5,1006.5h2.4v2.6h-2.4V1006.5z"/>
			<path d="M570.3,1020c-0.6,2.8-2.7,4.5-5.7,4.5c-3.6,0-6.3-2.5-6.3-6.3c0-3.9,2.7-6.6,6.2-6.6c3.9,0,5.9,2.8,5.9,6.1v0.9h-9.7
				c0.1,2.4,1.8,4.1,4,4.1c2,0,3.2-1,3.8-2.9L570.3,1020z M568,1017.1c-0.1-2-1.2-3.8-3.5-3.8c-2.2,0-3.5,1.7-3.8,3.8H568z"/>
			<path d="M578.3,1011.6c3.6,0,5.5,2.4,5.8,5.3l-2,0.1c-0.2-2.2-1.5-3.6-3.8-3.6c-2.3,0-3.9,1.8-3.9,4.6c0,2.8,1.6,4.6,3.9,4.6
				c2.3,0,3.6-1.5,3.8-3.7l2,0.2c-0.3,3-2.2,5.3-5.8,5.3c-3.7,0-6.3-2.5-6.3-6.4C572.1,1014.1,574.6,1011.6,578.3,1011.6z"/>
			<path d="M586.9,1013.6h-1.8v-1.3l0.8-0.1c1.1-0.2,1.4-0.8,1.7-2l0.4-1.7h1.3v3.4h3.4v1.7h-3.4v7.4c0,1.1,0.4,1.6,1.5,1.6
				c0.8,0,1.6-0.3,2.3-0.7v1.6c-0.9,0.7-1.8,1-3.1,1c-1.7,0-3-0.8-3-3.2V1013.6z"/>
			<path d="M596.1,1019.9c0.2,1.9,1.5,2.9,3.6,2.9c1.6,0,2.8-0.6,2.8-1.8c0-1.1-0.8-1.5-2.3-1.8l-2.1-0.4c-2.3-0.4-3.7-1.3-3.7-3.4
				c0-2.2,1.9-3.8,4.7-3.8c3.2,0,5.2,1.5,5.4,4.3l-1.9,0.1c-0.3-1.9-1.4-2.7-3.5-2.7c-1.5,0-2.5,0.7-2.5,1.8c0,1,0.6,1.5,1.9,1.7
				l2.3,0.4c2.5,0.4,3.9,1.3,3.9,3.6c0,2.4-2.2,3.8-5,3.8c-3.1,0-5.4-1.4-5.6-4.5L596.1,1019.9z"/>
			<path d="M613.3,1019.9c0.2,1.9,1.5,2.9,3.6,2.9c1.6,0,2.8-0.6,2.8-1.8c0-1.1-0.8-1.5-2.3-1.8l-2.1-0.4c-2.3-0.4-3.7-1.3-3.7-3.4
				c0-2.2,1.9-3.8,4.7-3.8c3.2,0,5.2,1.5,5.4,4.3l-1.9,0.1c-0.3-1.9-1.4-2.7-3.5-2.7c-1.5,0-2.5,0.7-2.5,1.8c0,1,0.6,1.5,1.9,1.7
				l2.3,0.4c2.5,0.4,3.9,1.3,3.9,3.6c0,2.4-2.2,3.8-5,3.8c-3.1,0-5.4-1.4-5.6-4.5L613.3,1019.9z"/>
			<path d="M626.7,1024.1h-2.3v-17.6h2.3v7.6c0.6-1.5,2.2-2.5,4.1-2.5c3.2,0,4.5,2.1,4.5,5v7.6h-2.3v-7.4c0-2-1-3.3-2.9-3.3
				c-1.8,0-3.3,1.5-3.3,3.7V1024.1z"/>
			<path d="M643.7,1024.5c-3.6,0-6.2-2.6-6.2-6.4c0-3.8,2.6-6.5,6.2-6.5c3.6,0,6.3,2.7,6.3,6.5
				C649.9,1021.8,647.3,1024.5,643.7,1024.5z M643.7,1022.7c2.5,0,3.9-1.9,3.9-4.6c0-2.7-1.4-4.6-3.9-4.6c-2.5,0-3.8,1.9-3.8,4.6
				C639.8,1020.8,641.2,1022.7,643.7,1022.7z"/>
			<path d="M652.8,1013.6h-1.8v-1.3l0.8-0.1c1.1-0.2,1.4-0.8,1.7-2l0.4-1.7h1.3v3.4h3.4v1.7h-3.4v7.4c0,1.1,0.4,1.6,1.5,1.6
				c0.8,0,1.6-0.3,2.3-0.7v1.6c-0.9,0.7-1.8,1-3.1,1c-1.7,0-3-0.8-3-3.2V1013.6z"/>
			<path d="M667.7,1024.1H666v-17.6h2.3v8c0.5-1.5,2.1-2.9,4.4-2.9c3.6,0,5.6,2.9,5.6,6.5c0,3.6-2,6.4-5.6,6.4
				c-2.3,0-3.9-1.3-4.4-2.9L667.7,1024.1z M668.2,1018.4c0,2.7,1.7,4.3,3.9,4.3c2.4,0,3.7-1.8,3.7-4.6c0-2.8-1.3-4.6-3.7-4.6
				c-2.2,0-3.9,1.6-3.9,4.2V1018.4z"/>
			<path d="M682.3,1028.8l2-4.7l-5.2-12.2h2.4l3.9,9.4h0.1l3.8-9.4h2.3l-7.1,16.9H682.3z"/>
			<path d="M700.8,1028.8h-2.3v-16.9h2.3v2.6c0.5-1.5,2.1-2.9,4.4-2.9c3.6,0,5.6,2.9,5.6,6.5c0,3.6-2,6.4-5.6,6.4
				c-2.3,0-3.9-1.4-4.4-2.9V1028.8z M700.7,1018.4c0,2.7,1.7,4.3,3.9,4.3c2.4,0,3.7-1.8,3.7-4.6c0-2.8-1.3-4.6-3.7-4.6
				c-2.2,0-3.9,1.6-3.9,4.2V1018.4z"/>
			<path d="M718.7,1024.5c-3.6,0-6.2-2.6-6.2-6.4c0-3.8,2.6-6.5,6.2-6.5c3.6,0,6.3,2.7,6.3,6.5
				C724.9,1021.8,722.3,1024.5,718.7,1024.5z M718.7,1022.7c2.5,0,3.9-1.9,3.9-4.6c0-2.7-1.4-4.6-3.9-4.6c-2.5,0-3.8,1.9-3.8,4.6
				C714.8,1020.8,716.2,1022.7,718.7,1022.7z"/>
			<path d="M729.7,1006.5v17.6h-2.3v-17.6H729.7z"/>
			<path d="M732.8,1006.5h2.4v2.6h-2.4V1006.5z M735.2,1011.9v12.2h-2.3v-12.2H735.2z"/>
			<path d="M743.8,1011.6c3.6,0,5.5,2.4,5.8,5.3l-2,0.1c-0.2-2.2-1.5-3.6-3.8-3.6c-2.3,0-3.9,1.8-3.9,4.6c0,2.8,1.6,4.6,3.9,4.6
				c2.3,0,3.6-1.5,3.8-3.7l2,0.2c-0.3,3-2.2,5.3-5.8,5.3c-3.7,0-6.3-2.5-6.3-6.4C737.5,1014.1,740.1,1011.6,743.8,1011.6z"/>
			<path d="M763.3,1020c-0.6,2.8-2.7,4.5-5.7,4.5c-3.6,0-6.3-2.5-6.3-6.3c0-3.9,2.7-6.6,6.2-6.6c3.9,0,5.9,2.8,5.9,6.1v0.9h-9.7
				c0.1,2.4,1.8,4.1,4,4.1c2,0,3.2-1,3.8-2.9L763.3,1020z M761,1017.1c-0.1-2-1.2-3.8-3.5-3.8c-2.2,0-3.5,1.7-3.8,3.8H761z"/>
			<path d="M770.7,1006.5h2.4v2.6h-2.4V1006.5z M773.1,1011.9v12.2h-2.3v-12.2H773.1z"/>
			<path d="M778.6,1024.1h-2.3v-12.2h2.3v2.2c0.6-1.5,2.2-2.5,4.1-2.5c3.2,0,4.5,2.1,4.5,5v7.6h-2.3v-7.4c0-2-1-3.3-2.9-3.3
				c-1.8,0-3.3,1.5-3.3,3.7V1024.1z"/>
			<path d="M801,1016.2c-0.7,0-1.3,0-1.7,0.1v-2c0.4,0.1,0.9,0.1,1.7,0.1c1.8,0,3.6-0.8,3.6-3c0-1.9-1.2-3.2-3.7-3.2
				c-2.5,0-4,1.6-4,4.4l-2.4-0.1c0-3.6,2.4-6.3,6.4-6.3c3.9,0,6,2,6,5c0,2.3-1.7,3.8-3.4,4.1c2.2,0.3,3.8,1.9,3.8,4.2
				c0,2.9-2.5,5-6.4,5c-4.2,0-6.8-2.4-6.8-6.3l2.4,0.1c0.1,2.8,1.8,4.2,4.4,4.2c2.3,0,3.9-1.1,3.9-3.2
				C804.9,1017.3,803.2,1016.2,801,1016.2z"/>
			<path d="M808.3,1009.1c2.5,0,3.5-0.8,4.1-2.7h1.6v17.8h-2.4v-13.5h-3.3V1009.1z"/>
			<path d="M832,1021.6c-0.6,1.5-2.1,2.9-4.4,2.9c-3.6,0-5.6-2.8-5.6-6.4c0-3.6,2-6.5,5.6-6.5c2.3,0,3.8,1.4,4.4,2.9v-8h2.3v17.6
				H832V1021.6z M832,1017.7c0-2.7-1.7-4.2-3.9-4.2c-2.4,0-3.8,1.8-3.8,4.6c0,2.8,1.3,4.6,3.8,4.6c2.2,0,3.9-1.6,3.9-4.3V1017.7z"/>
			<path d="M848.7,1020c-0.6,2.8-2.7,4.5-5.7,4.5c-3.6,0-6.3-2.5-6.3-6.3c0-3.9,2.7-6.6,6.2-6.6c3.9,0,5.9,2.8,5.9,6.1v0.9H839
				c0.1,2.4,1.8,4.1,4,4.1c2,0,3.2-1,3.8-2.9L848.7,1020z M846.4,1017.1c-0.1-2-1.2-3.8-3.5-3.8c-2.2,0-3.5,1.7-3.8,3.8H846.4z"/>
			<path d="M853.5,1028.8h-2.3v-16.9h2.3v2.6c0.5-1.5,2.1-2.9,4.4-2.9c3.6,0,5.6,2.9,5.6,6.5c0,3.6-2,6.4-5.6,6.4
				c-2.3,0-3.9-1.4-4.4-2.9V1028.8z M853.4,1018.4c0,2.7,1.7,4.3,3.9,4.3c2.4,0,3.7-1.8,3.7-4.6c0-2.8-1.3-4.6-3.7-4.6
				c-2.2,0-3.9,1.6-3.9,4.2V1018.4z"/>
			<path d="M875.8,1021.7c0,0.6,0.4,1,1,1c0.3,0,0.7-0.1,1.1-0.3v1.3c-0.4,0.4-0.9,0.7-1.9,0.7c-1.3,0-2.2-1-2.3-2.4
				c-0.7,1.4-2.4,2.5-4.4,2.5c-2.4,0-3.9-1.3-3.9-3.4c0-2.3,2-3.3,4.9-3.9l3.3-0.7v-0.5c0-1.7-1-2.7-2.7-2.7c-1.8,0-2.7,1-3.1,2.5
				l-2.1-0.3c0.5-2.3,2.3-4,5.2-4c3.1,0,4.9,1.6,4.9,4.7V1021.7z M873.5,1018.1l-2.7,0.6c-1.9,0.4-3.2,0.8-3.2,2.3
				c0,1,0.7,1.8,2.1,1.8c2.2,0,3.8-1.6,3.8-4.1V1018.1z"/>
			<path d="M886.9,1014.2c-0.7-0.4-1.1-0.5-1.9-0.5c-1.8,0-3.1,1.6-3.1,3.9v6.5h-2.3v-12.2h2.3v2.5c0.4-1.4,1.7-2.8,3.5-2.8
				c0.8,0,1.3,0.2,1.7,0.6L886.9,1014.2z"/>
			<path d="M889.6,1013.6h-1.8v-1.3l0.8-0.1c1.1-0.2,1.4-0.8,1.7-2l0.4-1.7h1.3v3.4h3.4v1.7h-3.4v7.4c0,1.1,0.4,1.6,1.5,1.6
				c0.8,0,1.6-0.3,2.3-0.7v1.6c-0.9,0.7-1.8,1-3.1,1c-1.7,0-3-0.8-3-3.2V1013.6z"/>
			<path d="M912.1,1011.6c3.2,0,4.3,2.2,4.3,5v7.6h-2.3v-7.4c0-2-0.8-3.3-2.7-3.3c-1.7,0-3.1,1.5-3.1,3.7v7h-2.3v-7.4
				c0-2-0.8-3.3-2.7-3.3c-1.7,0-3.1,1.5-3.1,3.7v7h-2.3v-12.2h2.3v2.2c0.6-1.5,2-2.5,3.9-2.5c2.2,0,3.5,1.1,4,2.7
				C908.6,1012.7,910.1,1011.6,912.1,1011.6z"/>
			<path d="M930.7,1020c-0.6,2.8-2.7,4.5-5.7,4.5c-3.6,0-6.3-2.5-6.3-6.3c0-3.9,2.7-6.6,6.2-6.6c3.9,0,5.9,2.8,5.9,6.1v0.9H921
				c0.1,2.4,1.8,4.1,4,4.1c2,0,3.2-1,3.8-2.9L930.7,1020z M928.4,1017.1c-0.1-2-1.2-3.8-3.5-3.8c-2.2,0-3.5,1.7-3.8,3.8H928.4z"/>
			<path d="M935.5,1024.1h-2.3v-12.2h2.3v2.2c0.6-1.5,2.2-2.5,4.1-2.5c3.2,0,4.5,2.1,4.5,5v7.6h-2.3v-7.4c0-2-1-3.3-2.9-3.3
				c-1.8,0-3.3,1.5-3.3,3.7V1024.1z"/>
			<path d="M947.5,1013.6h-1.8v-1.3l0.8-0.1c1.1-0.2,1.4-0.8,1.7-2l0.4-1.7h1.3v3.4h3.4v1.7h-3.4v7.4c0,1.1,0.4,1.6,1.5,1.6
				c0.8,0,1.6-0.3,2.3-0.7v1.6c-0.9,0.7-1.8,1-3.1,1c-1.7,0-3-0.8-3-3.2V1013.6z"/>
			<path d="M956.7,1019.9c0.2,1.9,1.5,2.9,3.6,2.9c1.6,0,2.8-0.6,2.8-1.8c0-1.1-0.8-1.5-2.3-1.8l-2.1-0.4c-2.3-0.4-3.7-1.3-3.7-3.4
				c0-2.2,1.9-3.8,4.7-3.8c3.2,0,5.2,1.5,5.4,4.3l-1.9,0.1c-0.3-1.9-1.4-2.7-3.5-2.7c-1.5,0-2.5,0.7-2.5,1.8c0,1,0.6,1.5,1.9,1.7
				l2.3,0.4c2.5,0.4,3.9,1.3,3.9,3.6c0,2.4-2.2,3.8-5,3.8c-3.1,0-5.4-1.4-5.6-4.5L956.7,1019.9z"/>
			<path d="M983.9,1021.2h0.1l2.8-9.3h2.2l-3.9,12.2h-2.2l-2.6-9.1h-0.1l-2.6,9.1h-2.2l-3.9-12.2h2.3l2.9,9.3h0.1l2.6-9.3h2
				L983.9,1021.2z"/>
			<path d="M990.7,1006.5h2.4v2.6h-2.4V1006.5z M993.1,1011.9v12.2h-2.3v-12.2H993.1z"/>
			<path d="M996.7,1013.6h-1.8v-1.3l0.8-0.1c1.1-0.2,1.4-0.8,1.7-2l0.4-1.7h1.3v3.4h3.4v1.7H999v7.4c0,1.1,0.4,1.6,1.5,1.6
				c0.8,0,1.6-0.3,2.3-0.7v1.6c-0.9,0.7-1.8,1-3.1,1c-1.7,0-3-0.8-3-3.2V1013.6z"/>
			<path d="M1007.1,1024.1h-2.3v-17.6h2.3v7.6c0.6-1.5,2.2-2.5,4.1-2.5c3.2,0,4.5,2.1,4.5,5v7.6h-2.3v-7.4c0-2-1-3.3-2.9-3.3
				c-1.8,0-3.3,1.5-3.3,3.7V1024.1z"/>
			<path d="M1024.8,1019.9c0.2,1.9,1.5,2.9,3.6,2.9c1.6,0,2.8-0.6,2.8-1.8c0-1.1-0.8-1.5-2.3-1.8l-2.1-0.4c-2.3-0.4-3.7-1.3-3.7-3.4
				c0-2.2,1.9-3.8,4.7-3.8c3.2,0,5.2,1.5,5.4,4.3l-1.9,0.1c-0.3-1.9-1.4-2.7-3.5-2.7c-1.5,0-2.5,0.7-2.5,1.8c0,1,0.6,1.5,1.9,1.7
				l2.3,0.4c2.5,0.4,3.9,1.3,3.9,3.6c0,2.4-2.2,3.8-5,3.8c-3.1,0-5.4-1.4-5.6-4.5L1024.8,1019.9z"/>
			<path d="M1044.1,1011.9h2.3v12.2h-2.3v-2.2c-0.6,1.5-2.2,2.5-4,2.5c-3.2,0-4.4-2.1-4.4-5v-7.6h2.3v7.4c0,2,0.9,3.4,2.8,3.4
				c1.8,0,3.2-1.5,3.2-3.7V1011.9z"/>
			<path d="M1052.4,1013.6v10.6h-2.3v-10.6h-1.9v-1.7h1.9v-1.3c0-2.5,1.6-4.1,3.9-4.1c1.4,0,2.3,0.4,3,0.9l-0.6,1.5
				c-0.6-0.4-1.3-0.7-2-0.7c-1.3,0-1.9,0.9-1.9,2.4v1.3h5.1v-0.9c0-3,1.7-4.9,4.7-4.9c2.4,0,3.8,1,4.5,3l-1.8,0.6
				c-0.4-1.1-1.2-1.8-2.5-1.8c-1.5,0-2.5,1-2.5,2.9v1.1h7.4v12.2h-2.3v-10.6h-5.1v10.6h-2.3v-10.6H1052.4z"/>
			<path d="M1075.8,1011.6c3.6,0,5.5,2.4,5.8,5.3l-2,0.1c-0.2-2.2-1.5-3.6-3.8-3.6c-2.3,0-3.9,1.8-3.9,4.6c0,2.8,1.6,4.6,3.9,4.6
				c2.3,0,3.6-1.5,3.8-3.7l2,0.2c-0.3,3-2.2,5.3-5.8,5.3c-3.7,0-6.3-2.5-6.3-6.4C1069.6,1014.1,1072.2,1011.6,1075.8,1011.6z"/>
			<path d="M1083.9,1006.5h2.4v2.6h-2.4V1006.5z M1086.3,1011.9v12.2h-2.3v-12.2H1086.3z"/>
			<path d="M1100.7,1020c-0.6,2.8-2.7,4.5-5.7,4.5c-3.6,0-6.3-2.5-6.3-6.3c0-3.9,2.7-6.6,6.2-6.6c3.9,0,5.9,2.8,5.9,6.1v0.9h-9.7
				c0.1,2.4,1.8,4.1,4,4.1c2,0,3.2-1,3.8-2.9L1100.7,1020z M1098.4,1017.1c-0.1-2-1.2-3.8-3.5-3.8c-2.2,0-3.5,1.7-3.8,3.8H1098.4z"
				/>
			<path d="M1105.5,1024.1h-2.3v-12.2h2.3v2.2c0.6-1.5,2.2-2.5,4.1-2.5c3.2,0,4.5,2.1,4.5,5v7.6h-2.3v-7.4c0-2-1-3.3-2.9-3.3
				c-1.8,0-3.3,1.5-3.3,3.7V1024.1z"/>
			<path d="M1117.5,1013.6h-1.8v-1.3l0.8-0.1c1.1-0.2,1.4-0.8,1.7-2l0.4-1.7h1.3v3.4h3.4v1.7h-3.4v7.4c0,1.1,0.4,1.6,1.5,1.6
				c0.8,0,1.6-0.3,2.3-0.7v1.6c-0.9,0.7-1.8,1-3.1,1c-1.7,0-3-0.8-3-3.2V1013.6z"/>
			<path d="M1138,1014.2c-0.7-0.4-1.1-0.5-1.9-0.5c-1.8,0-3.1,1.6-3.1,3.9v6.5h-2.3v-12.2h2.3v2.5c0.4-1.4,1.7-2.8,3.5-2.8
				c0.8,0,1.3,0.2,1.7,0.6L1138,1014.2z"/>
			<path d="M1149.6,1021.7c0,0.6,0.4,1,1,1c0.3,0,0.7-0.1,1.1-0.3v1.3c-0.4,0.4-0.9,0.7-1.9,0.7c-1.3,0-2.2-1-2.3-2.4
				c-0.7,1.4-2.4,2.5-4.4,2.5c-2.4,0-3.9-1.3-3.9-3.4c0-2.3,2-3.3,4.9-3.9l3.3-0.7v-0.5c0-1.7-1-2.7-2.7-2.7c-1.8,0-2.7,1-3.1,2.5
				l-2.1-0.3c0.5-2.3,2.3-4,5.2-4c3.1,0,4.9,1.6,4.9,4.7V1021.7z M1147.4,1018.1l-2.7,0.6c-1.9,0.4-3.2,0.8-3.2,2.3
				c0,1,0.7,1.8,2.1,1.8c2.2,0,3.8-1.6,3.8-4.1V1018.1z"/>
			<path d="M1158.8,1011.6c3.6,0,5.5,2.4,5.8,5.3l-2,0.1c-0.2-2.2-1.5-3.6-3.8-3.6c-2.3,0-3.9,1.8-3.9,4.6c0,2.8,1.6,4.6,3.9,4.6
				c2.3,0,3.6-1.5,3.8-3.7l2,0.2c-0.3,3-2.2,5.3-5.8,5.3c-3.7,0-6.3-2.5-6.3-6.4C1152.5,1014.1,1155.1,1011.6,1158.8,1011.6z"/>
			<path d="M1178.3,1020c-0.6,2.8-2.7,4.5-5.7,4.5c-3.6,0-6.3-2.5-6.3-6.3c0-3.9,2.7-6.6,6.2-6.6c3.9,0,5.9,2.8,5.9,6.1v0.9h-9.7
				c0.1,2.4,1.8,4.1,4,4.1c2,0,3.2-1,3.8-2.9L1178.3,1020z M1175.9,1017.1c-0.1-2-1.2-3.8-3.5-3.8c-2.2,0-3.5,1.7-3.8,3.8H1175.9z"
				/>
			<path d="M1195,1021.6c-0.6,1.5-2.1,2.9-4.4,2.9c-3.6,0-5.6-2.8-5.6-6.4c0-3.6,2-6.5,5.6-6.5c2.3,0,3.8,1.4,4.4,2.9v-8h2.3v17.6
				h-2.3V1021.6z M1195,1017.7c0-2.7-1.7-4.2-3.9-4.2c-2.4,0-3.8,1.8-3.8,4.6c0,2.8,1.3,4.6,3.8,4.6c2.2,0,3.9-1.6,3.9-4.3V1017.7z"
				/>
			<path d="M1210.3,1021.7c0,0.6,0.4,1,1,1c0.3,0,0.7-0.1,1.1-0.3v1.3c-0.4,0.4-0.9,0.7-1.9,0.7c-1.3,0-2.2-1-2.3-2.4
				c-0.7,1.4-2.4,2.5-4.4,2.5c-2.4,0-3.9-1.3-3.9-3.4c0-2.3,2-3.3,4.9-3.9l3.3-0.7v-0.5c0-1.7-1-2.7-2.7-2.7c-1.8,0-2.7,1-3.1,2.5
				l-2.1-0.3c0.5-2.3,2.3-4,5.2-4c3.1,0,4.9,1.6,4.9,4.7V1021.7z M1208.1,1018.1l-2.7,0.6c-1.9,0.4-3.2,0.8-3.2,2.3
				c0,1,0.7,1.8,2.1,1.8c2.2,0,3.8-1.6,3.8-4.1V1018.1z"/>
			<path d="M1214.4,1013.6h-1.8v-1.3l0.8-0.1c1.1-0.2,1.4-0.8,1.7-2l0.4-1.7h1.3v3.4h3.4v1.7h-3.4v7.4c0,1.1,0.4,1.6,1.5,1.6
				c0.8,0,1.6-0.3,2.3-0.7v1.6c-0.9,0.7-1.8,1-3.1,1c-1.7,0-3-0.8-3-3.2V1013.6z"/>
			<path d="M1232.5,1021.7c0,0.6,0.4,1,1,1c0.3,0,0.7-0.1,1.1-0.3v1.3c-0.4,0.4-0.9,0.7-1.9,0.7c-1.3,0-2.2-1-2.3-2.4
				c-0.7,1.4-2.4,2.5-4.4,2.5c-2.4,0-3.9-1.3-3.9-3.4c0-2.3,2-3.3,4.9-3.9l3.3-0.7v-0.5c0-1.7-1-2.7-2.7-2.7c-1.8,0-2.7,1-3.1,2.5
				l-2.1-0.3c0.5-2.3,2.3-4,5.2-4c3.1,0,4.9,1.6,4.9,4.7V1021.7z M1230.2,1018.1l-2.7,0.6c-1.9,0.4-3.2,0.8-3.2,2.3
				c0,1,0.7,1.8,2.1,1.8c2.2,0,3.8-1.6,3.8-4.1V1018.1z"/>
		</g>
	</g>
</g>
<g id="Axis">
	<g>
		<rect x="192" y="861.4" class="st1" width="192" height="56"/>
		<path d="M202.7,906.8c-5.4,0-8.9-4.1-8.9-11.4c0-7.3,3.5-11.4,8.9-11.4s8.9,4.1,8.9,11.4C211.6,902.7,208.1,906.8,202.7,906.8z
			 M202.7,886.4c-3.6,0-5.7,3-5.7,9c0,6,2.1,9,5.7,9c3.6,0,5.7-3,5.7-9C208.5,889.4,206.4,886.4,202.7,886.4z"/>
	</g>
	<g>
		<rect x="192" y="581.6" class="st1" width="192" height="56"/>
		<path d="M195,626.6v-2.5h7V610h-6.2v-2.2h1.9c3.7,0,4.7-0.7,5.4-3.3h2v19.7h6.5v2.5H195z"/>
		<path d="M222,622.2h4.5v4.5H222V622.2z"/>
		<path d="M245.7,627.1c-5.4,0-8.9-4.1-8.9-11.4c0-7.3,3.5-11.4,8.9-11.4s8.9,4.1,8.9,11.4C254.6,622.9,251.1,627.1,245.7,627.1z
			 M245.7,606.6c-3.6,0-5.7,3-5.7,9s2.1,9,5.7,9c3.6,0,5.7-3,5.7-9S249.4,606.6,245.7,606.6z"/>
	</g>
	<g>
		<rect x="192" y="301.9" class="st1" width="284.9" height="56"/>
		<path d="M210.7,344.3v2.6h-16.2v-1.8l6.3-5.4c3.5-3,6.1-5.3,6.1-8.5c0-2.6-1.5-4.3-4.5-4.3c-3,0-4.7,1.9-4.7,5.1
			c0,0.7,0.1,1.4,0.4,2l-3-0.1c-0.2-0.7-0.3-1.4-0.3-2.1c0-4.5,3-7.4,7.7-7.4c5.1,0,7.6,3,7.6,6.8c0,4-3.6,7.1-6.7,9.7l-4.1,3.4
			H210.7z"/>
		<path d="M222,342.4h4.5v4.5H222V342.4z"/>
		<path d="M245.7,347.3c-5.4,0-8.9-4.1-8.9-11.4c0-7.3,3.5-11.4,8.9-11.4s8.9,4.1,8.9,11.4C254.6,343.2,251.1,347.3,245.7,347.3z
			 M245.7,326.9c-3.6,0-5.7,3-5.7,9c0,6,2.1,9,5.7,9c3.6,0,5.7-3,5.7-9C251.5,329.9,249.4,326.9,245.7,326.9z"/>
		<path d="M284.6,352.8h-2.9v-21.2h2.9v3.3c0.8-2.1,2.6-3.7,5.5-3.7c4.6,0,7.2,3.6,7.2,8.1c0,4.5-2.7,8.1-7.2,8.1
			c-2.9,0-4.7-1.6-5.5-3.7V352.8z M284.5,339.6c0,3.4,2.2,5.5,4.9,5.5c3.1,0,5-2.3,5-5.8s-1.9-5.8-5-5.8c-2.7,0-4.9,2.1-4.9,5.5
			V339.6z"/>
		<path d="M317.5,343.1c-1.2,2.7-3.6,4.2-7.2,4.2c-4.6,0-8-3.2-8-7.8c0-4.8,3.4-8.3,7.9-8.3c4.9,0,7.4,3.6,7.4,7.5v0.9h-12.4
			c0,3.3,2.4,5.4,5.2,5.4c2.6,0,4-1.1,4.9-3.3L317.5,343.1z M314.8,337.7c-0.1-2.2-1.7-4.3-4.6-4.3c-2.8,0-4.6,2-4.9,4.3H314.8z"/>
		<path d="M327.8,340.4v6.5h-2.9v-15.3h2.9v4.4c0.7-2.5,2.8-4.8,6.1-4.8c3.5,0,5.4,2.6,5.4,5.3c0,0.6,0,1.1-0.1,1.4l-2.7,0.8
			c0.1-0.3,0.2-0.7,0.2-1.4c0-2-1.2-3.5-3.6-3.5C330.2,333.7,327.8,336.8,327.8,340.4z"/>
		<path d="M366.9,346.9v-2.5h7v-14.1h-6.2V328h1.9c3.7,0,4.7-0.7,5.4-3.3h2v19.7h6.5v2.5H366.9z"/>
		<path d="M396.2,347.3c-5.4,0-8.9-4.1-8.9-11.4c0-7.3,3.5-11.4,8.9-11.4s8.9,4.1,8.9,11.4C405,343.2,401.5,347.3,396.2,347.3z
			 M396.2,326.9c-3.6,0-5.7,3-5.7,9c0,6,2.1,9,5.7,9c3.6,0,5.7-3,5.7-9C401.9,329.9,399.8,326.9,396.2,326.9z"/>
		<path d="M417.6,347.3c-5.4,0-8.9-4.1-8.9-11.4c0-7.3,3.5-11.4,8.9-11.4s8.9,4.1,8.9,11.4C426.5,343.2,423,347.3,417.6,347.3z
			 M417.6,326.9c-3.6,0-5.7,3-5.7,9c0,6,2.1,9,5.7,9c3.6,0,5.7-3,5.7-9C423.4,329.9,421.3,326.9,417.6,326.9z"/>
		<path d="M445.6,346.9l-7.8-10.9l-3.5,3.9v7h-3.1v-22.1h3.1v11.6l10.3-11.6h3.6l-8.3,9l9.3,13H445.6z"/>
	</g>
	<path class="st2" d="M192,917.4h1536"/>
	<path class="st2" d="M192,637.6h1536"/>
	<path class="st2" d="M192,357.8h1536"/>
	<g>
	</g>
	<line class="st1" x1="111.8" y1="656.3" x2="112.5" y2="657.7"/>
</g>
<g id="data">
	<rect x="288" y="871" class="st3" width="295.7" height="47"/>
	<g>
		<rect x="381" y="805.4" class="st1" width="109.7" height="111.9"/>
		<path d="M395.7,855h-8.1l-2.1,6.4h-3l7.4-22.1h3.7l7.4,22.1h-3.2L395.7,855z M388.4,852.5h6.5l-3.2-9.8h-0.1L388.4,852.5z"/>
		<path d="M406.2,854.5c1.4,3.2,4.3,4.8,7.3,4.8c3,0,5.2-1.3,5.2-3.8c0-2-1.4-2.8-3.7-3.4l-4.4-1c-2.9-0.7-5.3-2.3-5.3-5.8
			c0-3.7,3-6.4,7.4-6.4c4,0,6.8,1.9,8.1,4.3l-2,2.1c-1-2.3-3.2-4-6.2-4c-2.7,0-4.5,1.3-4.5,3.7c0,2.1,1.5,2.8,3.7,3.3l3.9,0.9
			c3.2,0.8,5.7,2.3,5.7,6.1c0,4-3.5,6.4-8.1,6.4c-4,0-7.7-1.9-9.2-5L406.2,854.5z"/>
		<path d="M427,861.4v-2.6h6.2V842H427v-2.6h15.5v2.6h-6.2v16.8h6.2v2.6H427z"/>
		<path d="M460.1,855h-8.1l-2.1,6.4h-3l7.4-22.1h3.7l7.4,22.1h-3.2L460.1,855z M452.9,852.5h6.5l-3.2-9.8H456L452.9,852.5z"/>
		<path d="M483.1,856.4v-17.1h2.8v22.1h-2.7l-10.9-18.2v18.2h-2.8v-22.1h3.6L483.1,856.4z"/>
	</g>
	<rect x="637.4" y="755.2" class="st3" width="295.7" height="162.8"/>
	<g>
		<rect x="730.6" y="805.4" class="st1" width="109.3" height="111.9"/>
		<path class="st4" d="M746,857.5h0.2l2-18.1h2.8l-2.9,22.1h-3.6l-3.2-14.7h-0.2l-3.2,14.7h-3.6l-2.8-22.1h3l2,18.1h0.2l3.2-14.6
			h2.7L746,857.5z"/>
		<path class="st4" d="M754.6,861.4v-22.1h3.1v9.3H768v-9.3h3.1v22.1H768v-10.1h-10.3v10.1H754.6z"/>
		<path class="st4" d="M776.6,861.4v-2.6h6.2V842h-6.2v-2.6h15.5v2.6h-6.2v16.8h6.2v2.6H776.6z"/>
		<path class="st4" d="M804.3,861.4V842h-7.8v-2.7h18.8v2.7h-7.9v19.4H804.3z"/>
		<path class="st4" d="M835.2,861.4h-14.6v-22.1h14.3v2.6h-11.3v6.7h8v2.6h-8v7.5h11.6V861.4z"/>
	</g>
	<rect x="986.9" y="691.6" class="st3" width="295.7" height="226.4"/>
	<g>
		<rect x="1069.9" y="805.4" class="st1" width="129.6" height="111.9"/>
		<path class="st4" d="M1077.2,839.3v19.4h11.4v2.7h-14.5v-22.1H1077.2z"/>
		<path class="st4" d="M1106.1,855h-8.1l-2.1,6.4h-3l7.4-22.1h3.7l7.4,22.1h-3.2L1106.1,855z M1098.8,852.5h6.5l-3.2-9.8h-0.1
			L1098.8,852.5z"/>
		<path class="st4" d="M1122.1,861.4V842h-7.8v-2.7h18.8v2.7h-7.9v19.4H1122.1z"/>
		<path class="st4" d="M1137.4,861.4v-2.6h6.2V842h-6.2v-2.6h15.5v2.6h-6.2v16.8h6.2v2.6H1137.4z"/>
		<path class="st4" d="M1172,856.4v-17.1h2.8v22.1h-2.7l-10.9-18.2v18.2h-2.8v-22.1h3.6L1172,856.4z"/>
		<path class="st4" d="M1188.1,861.8c-5.3,0-9.2-4.7-9.2-11.4c0-6.8,3.9-11.4,9.2-11.4s9.2,4.7,9.2,11.4
			C1197.3,857.2,1193.4,861.8,1188.1,861.8z M1188.1,841.6c-3.6,0-6,3.4-6,8.8s2.4,8.8,6,8.8s6-3.4,6-8.8S1191.8,841.6,1188.1,841.6
			z"/>
	</g>
	<rect x="1336.3" y="272.5" class="st3" width="295.7" height="645.5"/>
	<g>
		<rect x="1427.6" y="805.4" class="st1" width="113.1" height="111.9"/>
		<path class="st4" d="M1446.7,855.3c0,3.8-2.8,6.1-7.9,6.1h-8.2v-22.1h7.8c5.4,0,7.7,2.4,7.7,5.9c0,2.6-2.2,4.3-4.7,4.7
			C1444.2,850.4,1446.7,852.2,1446.7,855.3z M1433.6,848.9h5c3.2,0,4.5-1.3,4.5-3.5c0-2.1-1.4-3.5-4.5-3.5h-5V848.9z M1433.6,851.2
			v7.6h5.1c3.3,0,5-1.4,5-3.7c0-2.5-1.7-3.9-5-3.9H1433.6z"/>
		<path class="st4" d="M1456.4,839.3v19.4h11.4v2.7h-14.5v-22.1H1456.4z"/>
		<path class="st4" d="M1485.3,855h-8.1l-2.1,6.4h-3l7.4-22.1h3.7l7.4,22.1h-3.2L1485.3,855z M1478,852.5h6.5l-3.2-9.8h-0.1
			L1478,852.5z"/>
		<path class="st4" d="M1511.7,855.1c-1.1,4.1-3.9,6.7-8.3,6.7c-5.3,0-9.4-4.7-9.4-11.4c0-6.8,4.1-11.4,9.5-11.4
			c4,0,6.7,2.2,7.9,5.8l-2.8,1.7c-0.7-2.9-2.5-4.9-5.3-4.9c-3.4,0-6.2,3.4-6.2,8.8s2.8,8.8,6.1,8.8c3.1,0,4.9-2,5.5-5.5
			L1511.7,855.1z"/>
		<path class="st4" d="M1530.8,861.4l-7.8-10.9l-3.5,3.9v7h-3.1v-22.1h3.1v11.6l10.3-11.6h3.6l-8.3,9l9.3,13H1530.8z"/>
	</g>
</g>
</svg>
